<?xml version="1.0" encoding="utf-8"?>
<!-- Generator: Adobe Illustrator 27.5.0, SVG Export Plug-In . SVG Version: 6.00 Build 0)  -->
<svg version="1.1" xmlns="http://www.w3.org/2000/svg" xmlns:xlink="http://www.w3.org/1999/xlink" x="0px" y="0px"
	 viewBox="0 0 500 500" style="enable-background:new 0 0 500 500;" xml:space="preserve">
<g id="Background_Complete">
	<g>
		<g>
			<path style="fill:#EBEBEB;" d="M413.219,247.352c0,5.213-4.226,9.439-9.439,9.439c-5.213,0-9.439-4.226-9.439-9.439
				c0-5.213,4.226-9.439,9.439-9.439C408.993,237.912,413.219,242.138,413.219,247.352z"/>
		</g>
		<g>
			
				<ellipse transform="matrix(0.7071 -0.7071 0.7071 0.7071 -64.8486 338.1447)" style="fill:#EBEBEB;" cx="375.752" cy="247.351" rx="10.055" ry="10.055"/>
		</g>
		<g>
			<circle style="fill:#EBEBEB;" cx="354.208" cy="229.562" r="10.673"/>
		</g>
		<g>
			
				<ellipse transform="matrix(0.1767 -0.9843 0.9843 0.1767 89.0013 510.8203)" style="fill:#EBEBEB;" cx="349.836" cy="202.211" rx="11.148" ry="11.148"/>
		</g>
		<g>
			<circle style="fill:#EBEBEB;" cx="363.487" cy="178.267" r="11.521"/>
		</g>
		<g>
			
				<ellipse transform="matrix(0.9227 -0.3856 0.3856 0.9227 -34.9531 163.3459)" style="fill:#EBEBEB;" cx="389.724" cy="168.807" rx="12.556" ry="12.556"/>
		</g>
		<g>
			
				<ellipse transform="matrix(0.2289 -0.9735 0.9735 0.2289 104.177 590.1904)" style="fill:#EBEBEB;" cx="424.605" cy="229.341" rx="9.117" ry="9.117"/>
		</g>
		<g>
			
				<ellipse transform="matrix(0.9339 -0.3576 0.3576 0.9339 -43.8029 166.9525)" style="fill:#EBEBEB;" cx="429.484" cy="201.905" rx="8.462" ry="8.462"/>
		</g>
		<g>
			
				<ellipse transform="matrix(0.1598 -0.9871 0.9871 0.1598 173.366 559.5885)" style="fill:#EBEBEB;" cx="415.412" cy="177.951" rx="7.73" ry="7.73"/>
		</g>
	</g>
	<g>
		<g>
			<g>
				<g>
					<g>
						<g>
							<g>
								<g>
									<path style="fill-rule:evenodd;clip-rule:evenodd;fill:#E0E0E0;" d="M142.263,132.533c2.327,2.487,4.28,5.247,5.835,8.191
										l9.324-0.036l3.465,15.034l-8.399,4.051c-0.108,3.327-0.654,6.664-1.659,9.921l6.617,6.566l-8.181,13.08l-8.799-3.073
										c-2.487,2.33-5.249,4.281-8.193,5.834l0.035,9.326l-15.032,3.465l-4.052-8.399c-3.327-0.109-6.663-0.656-9.921-1.662
										l-6.565,6.617l-13.083-8.18l3.074-8.8c-2.33-2.487-4.28-5.247-5.834-8.192l-9.326,0.035l-3.465-15.034l8.401-4.05
										c0.109-3.327,0.656-6.663,1.66-9.92l-6.615-6.566l8.18-13.081l8.799,3.074c2.487-2.33,5.249-4.282,8.193-5.835
										l-0.035-9.326l15.032-3.465l4.051,8.4c3.327,0.108,6.663,0.655,9.921,1.66l6.565-6.616l13.08,8.179L142.263,132.533
										L142.263,132.533z M123.865,144.84c-7.749-4.846-17.961-2.493-22.808,5.258c-4.846,7.75-2.491,17.962,5.257,22.807
										c7.751,4.846,17.961,2.492,22.808-5.257C133.969,159.897,131.616,149.687,123.865,144.84z"/>
								</g>
							</g>
						</g>
					</g>
				</g>
			</g>
			<g>
				<g>
					<g>
						<g>
							<g>
								<g>
									<path style="fill-rule:evenodd;clip-rule:evenodd;fill:#E0E0E0;" d="M151.346,69.302c1.288,1.377,2.369,2.905,3.23,4.535
										l5.162-0.02l1.918,8.323l-4.65,2.243c-0.06,1.842-0.362,3.69-0.919,5.493l3.663,3.635l-4.53,7.242l-4.872-1.701
										c-1.377,1.29-2.906,2.37-4.536,3.23l0.02,5.163l-8.322,1.919l-2.243-4.65c-1.842-0.06-3.689-0.363-5.492-0.92l-3.635,3.664
										l-7.243-4.529l1.702-4.872c-1.29-1.377-2.37-2.905-3.23-4.536l-5.163,0.019l-1.919-8.324l4.651-2.242
										c0.06-1.842,0.364-3.689,0.919-5.492l-3.663-3.635l4.529-7.243l4.872,1.702c1.377-1.29,2.906-2.371,4.536-3.231
										l-0.02-5.163l8.322-1.919l2.243,4.651c1.842,0.06,3.689,0.363,5.493,0.919l3.635-3.663l7.242,4.528L151.346,69.302
										L151.346,69.302z M141.16,76.116c-4.29-2.683-9.944-1.38-12.627,2.911c-2.683,4.291-1.379,9.944,2.911,12.627
										c4.291,2.683,9.944,1.38,12.627-2.911C146.754,84.452,145.451,78.799,141.16,76.116z"/>
								</g>
							</g>
						</g>
					</g>
				</g>
			</g>
			<g>
				<g>
					<g>
						<g>
							<g>
								<g>
									<g>
										<path style="fill:none;" d="M87.182,79.166c1.044,1.116,1.92,2.354,2.617,3.675l4.183-0.016l1.554,6.744l-3.768,1.817
											c-0.049,1.493-0.294,2.989-0.744,4.45l2.968,2.946l-3.67,5.868l-3.947-1.379c-1.116,1.045-2.354,1.92-3.675,2.617
											l0.016,4.183l-6.743,1.555l-1.817-3.768c-1.493-0.049-2.989-0.294-4.45-0.745l-2.945,2.969l-5.869-3.67l1.379-3.948
											c-1.045-1.116-1.92-2.354-2.617-3.675l-4.184,0.016l-1.554-6.744l3.768-1.817c0.049-1.493,0.294-2.989,0.744-4.45
											l-2.967-2.945l3.669-5.868l3.947,1.379c1.116-1.045,2.355-1.921,3.676-2.618l-0.016-4.183l6.743-1.555l1.817,3.768
											c1.493,0.049,2.989,0.294,4.45,0.745l2.945-2.968l5.868,3.669L87.182,79.166L87.182,79.166z M78.929,84.687
											c-3.476-2.174-8.057-1.118-10.231,2.359c-2.174,3.477-1.118,8.057,2.358,10.231c3.477,2.174,8.057,1.118,10.231-2.359
											C83.461,91.442,82.406,86.861,78.929,84.687z"/>
									</g>
									<g>
										<g>
											<path style="fill:#E0E0E0;" d="M78.929,84.687c0.008-0.014,0.151,0.066,0.416,0.233c0.268,0.161,0.64,0.442,1.064,0.862
												c0.841,0.819,1.907,2.338,2.135,4.505c0.105,1.068,0.008,2.283-0.46,3.471c-0.469,1.176-1.243,2.358-2.386,3.236
												c-0.557,0.453-1.204,0.822-1.903,1.097c-0.696,0.285-1.453,0.465-2.233,0.517c-1.561,0.139-3.213-0.263-4.628-1.131
												c-1.401-0.892-2.486-2.202-3.044-3.667c-0.295-0.725-0.464-1.485-0.513-2.235c-0.059-0.749-0.01-1.493,0.153-2.192
												c0.289-1.413,1.012-2.626,1.865-3.563c0.864-0.94,1.913-1.56,2.92-1.933c2.048-0.743,3.881-0.451,4.985-0.053
												c0.563,0.197,0.979,0.409,1.24,0.579C78.803,84.58,78.938,84.674,78.929,84.687c-0.027,0.049-0.573-0.332-1.688-0.677
												c-1.095-0.336-2.868-0.561-4.811,0.19c-0.955,0.377-1.944,0.982-2.75,1.886c-0.796,0.901-1.468,2.055-1.728,3.389
												c-0.149,0.66-0.189,1.361-0.129,2.066c0.05,0.706,0.213,1.42,0.494,2.1c0.531,1.375,1.55,2.599,2.865,3.438
												c1.33,0.814,2.876,1.195,4.344,1.07c0.734-0.045,1.447-0.211,2.104-0.475c0.66-0.254,1.272-0.597,1.8-1.02
												c1.086-0.817,1.829-1.927,2.29-3.037c0.459-1.12,0.571-2.274,0.492-3.298c-0.175-2.076-1.153-3.572-1.936-4.409
												C79.478,85.057,78.896,84.732,78.929,84.687z"/>
										</g>
									</g>
									<g>
										<g>
											<path style="fill:#E0E0E0;" d="M87.182,79.166c-0.006,0.001,0.017-0.083,0.069-0.251
												c0.061-0.187,0.141-0.436,0.243-0.753c0.232-0.692,0.564-1.684,0.994-2.969l0.031,0.088
												c-1.51-0.931-3.493-2.154-5.891-3.632l0.148-0.017c-0.889,0.903-1.876,1.907-2.932,2.981l-0.058,0.059l-0.081-0.024
												c-1.344-0.409-2.833-0.676-4.414-0.722l-0.093-0.003l-0.041-0.085c-0.57-1.173-1.187-2.442-1.829-3.763l0.188,0.09
												c-2.122,0.495-4.375,1.02-6.739,1.572l0.144-0.181c0.008,1.295,0.016,2.721,0.025,4.183l0.001,0.118l-0.104,0.055
												c-1.226,0.649-2.492,1.523-3.627,2.594l-0.089,0.084l-0.117-0.04c-1.224-0.425-2.574-0.895-3.949-1.372l0.247-0.087
												c-1.15,1.845-2.39,3.834-3.661,5.873l-0.031-0.271c0.925,0.916,1.941,1.923,2.971,2.942l0.096,0.095l-0.04,0.129
												c-0.411,1.334-0.683,2.848-0.731,4.392l-0.004,0.137l-0.124,0.06c-1.18,0.57-2.467,1.192-3.767,1.82l0.124-0.259
												c0.493,2.135,1.022,4.423,1.558,6.743l-0.229-0.181c1.321-0.005,2.747-0.011,4.184-0.017l0.142-0.001l0.066,0.126
												c0.659,1.251,1.533,2.507,2.579,3.621l0.001,0.001l0.001,0.001c0.023,0.107-0.05-0.238,0.051,0.239l-0.001,0.004
												l-0.003,0.008l-0.005,0.016l-0.011,0.031l-0.022,0.062l-0.044,0.124l-0.087,0.248l-0.173,0.496l-0.346,0.99
												c-0.23,0.659-0.459,1.315-0.688,1.968l-0.097-0.276c1.983,1.241,3.939,2.465,5.868,3.671l-0.289,0.034
												c0.992-0.999,1.974-1.988,2.946-2.967l0.099-0.099l0.133,0.041c1.439,0.445,2.92,0.689,4.389,0.738l0.138,0.005
												l0.06,0.124c0.614,1.275,1.218,2.53,1.814,3.769l-0.252-0.121c2.302-0.528,4.552-1.044,6.745-1.547l-0.168,0.212
												c-0.003-1.419-0.007-2.814-0.01-4.183l0-0.128l0.113-0.059c1.348-0.709,2.569-1.585,3.634-2.579l0.09-0.084l0.116,0.041
												c1.353,0.475,2.664,0.936,3.945,1.386l-0.23,0.081c1.296-2.061,2.519-4.007,3.683-5.859l0.026,0.223
												c-1.041-1.039-2.018-2.013-2.96-2.953l-0.073-0.073l0.03-0.097c0.474-1.523,0.699-2.998,0.751-4.405l0.004-0.094
												l0.084-0.04c1.372-0.655,2.607-1.245,3.774-1.803L95.401,89.6c-0.589-2.615-1.091-4.843-1.521-6.751l0.103,0.082
												c-1.67-0.006-3.04-0.01-4.183-0.014l-0.046,0l-0.021-0.04c-0.702-1.348-1.382-2.256-1.844-2.844
												c-0.228-0.277-0.403-0.49-0.533-0.649C87.231,79.237,87.176,79.167,87.182,79.166c0.006-0.001,0.076,0.065,0.203,0.192
												c0.128,0.134,0.321,0.338,0.564,0.625c0.483,0.574,1.188,1.474,1.917,2.822l-0.067-0.04
												c1.143-0.012,2.513-0.027,4.183-0.046l0.084-0.001l0.02,0.083c0.449,1.904,0.972,4.128,1.587,6.736l0.025,0.108
												l-0.101,0.049c-1.163,0.566-2.394,1.166-3.761,1.831l0.087-0.134c-0.043,1.433-0.263,2.938-0.738,4.495l-0.042-0.17
												c0.947,0.935,1.929,1.905,2.976,2.938l0.102,0.101l-0.076,0.123c-1.156,1.858-2.371,3.809-3.657,5.876l-0.082,0.132
												l-0.148-0.051c-1.282-0.445-2.596-0.901-3.95-1.371l0.206-0.044c-1.088,1.023-2.337,1.925-3.716,2.655l0.112-0.187
												c0.007,1.37,0.014,2.764,0.021,4.183l0.001,0.173l-0.169,0.039c-2.192,0.508-4.44,1.029-6.741,1.562l-0.174,0.04
												l-0.078-0.161c-0.599-1.238-1.205-2.492-1.821-3.766l0.198,0.129c-1.509-0.048-3.032-0.297-4.511-0.753l0.232-0.058
												c-0.972,0.98-1.953,1.97-2.943,2.97l-0.131,0.132l-0.158-0.099c-1.929-1.205-3.886-2.428-5.87-3.668l-0.159-0.1
												l0.062-0.177c0.228-0.653,0.457-1.309,0.687-1.968l0.346-0.99l0.173-0.496l0.087-0.249l0.043-0.124l0.022-0.062
												l0.011-0.031l0.005-0.015l0.003-0.008l0.001-0.004c0.101,0.476,0.028,0.132,0.05,0.238l-0.001-0.001l-0.002-0.002
												c-1.075-1.145-1.974-2.437-2.65-3.723l0.208,0.125c-1.436,0.005-2.862,0.01-4.184,0.015l-0.187,0.001l-0.042-0.182
												c-0.534-2.32-1.06-4.609-1.551-6.745l-0.041-0.18l0.166-0.08c1.301-0.626,2.589-1.246,3.77-1.814l-0.129,0.197
												c0.051-1.586,0.334-3.14,0.758-4.508l0.056,0.224c-1.027-1.022-2.041-2.03-2.964-2.948l-0.124-0.124l0.093-0.148
												c1.277-2.035,2.522-4.022,3.677-5.863l0.089-0.142l0.158,0.055c1.374,0.482,2.722,0.956,3.945,1.385l-0.205,0.044
												c1.167-1.092,2.466-1.983,3.723-2.641l-0.104,0.172c-0.002-1.462-0.005-2.888-0.007-4.183l0-0.149l0.144-0.033
												c2.367-0.539,4.622-1.053,6.747-1.537l0.131-0.03l0.058,0.12c0.634,1.324,1.243,2.598,1.806,3.774l-0.134-0.087
												c1.61,0.058,3.123,0.341,4.486,0.767L79.65,74.42c1.065-1.064,2.062-2.059,2.958-2.955l0.068-0.068l0.08,0.051
												c2.379,1.509,4.346,2.756,5.844,3.707l0.051,0.033l-0.02,0.056c-0.458,1.261-0.812,2.234-1.059,2.914
												c-0.119,0.317-0.212,0.565-0.282,0.752C87.225,79.078,87.189,79.165,87.182,79.166z"/>
										</g>
									</g>
								</g>
							</g>
						</g>
					</g>
				</g>
			</g>
		</g>
	</g>
</g>
<g id="Background_Simple" style="display:none;">
	<path style="display:inline;fill:#EBEBEB;" d="M430.958,124.107c-15.665-16.94-36.375-30.102-59.278-32.899
		c-22.903-2.797-47.847,6.189-60.654,25.381c-10.3,15.435-11.87,35.102-20.107,51.729c-15.19,30.664-51.439,46.355-85.66,46.512
		c-35.989,0.165-73.72-13.587-106.839,0.497c-29.13,12.388-46.316,44.147-49.945,75.594c-3.255,28.21,3.088,58,20.241,80.631
		c17.153,22.631,50.06,45.665,90.321,48.509l74.2,1.908c34.608,0.782,69.133-4.928,101.374-17.532
		c19.701-7.702,38.407-17.776,55.406-30.39c38.248-28.381,67.303-70.136,76.393-116.888
		C475.5,210.406,463.294,159.074,430.958,124.107z"/>
</g>
<g id="Screen">
	<g>
		<g>
			<g>
				<g>
					<g>
						<g>
							<g>
								<g>
									<g>
										<g>
											<g>
												<path style="fill:#FFFFFF;" d="M326.562,41.675l-29.401-0.135c-3.942-0.018-7.154,3.309-7.17,7.43l-0.024,5.333
													c-0.016,4.122-3.228,7.449-7.17,7.431l-57.31-0.265c-3.942-0.018-7.125-3.374-7.108-7.496l0.023-5.333
													c0.017-4.122-3.166-7.479-7.108-7.496l-10.34-0.048l-25.733-0.119c-12.78-0.058-23.187,10.256-23.241,23.037
													l-1.568,371.079c-0.054,12.775,10.254,23.174,23.027,23.233l151.342,0.698c12.779,0.059,23.186-10.256,23.241-23.036
													l1.569-371.08C349.643,52.134,339.335,41.735,326.562,41.675z"/>
											</g>
											<g>
												<g>
													<path style="fill:#263238;" d="M326.562,41.675c0,0,0.266,0.006,0.792,0.03c0.523,0.053,1.319-0.004,2.344,0.195
														c2.049,0.252,5.164,0.932,8.661,3.037c1.766,1.006,3.56,2.452,5.256,4.298c1.689,1.849,3.255,4.158,4.372,6.921
														c1.132,2.754,1.737,5.966,1.69,9.392c-0.011,3.416-0.022,7.053-0.034,10.906c-0.111,30.826-0.271,75.424-0.469,130.531
														c-0.217,55.111-0.476,120.73-0.763,193.593c-0.037,9.108-0.074,18.329-0.112,27.657
														c-0.009,2.332-0.019,4.671-0.029,7.016c-0.036,2.347-0.197,4.757-0.913,7.037c-0.674,2.28-1.628,4.503-2.973,6.491
														c-1.34,1.987-2.967,3.782-4.828,5.314c-3.764,2.996-8.472,4.897-13.345,5.118c-1.221,0.081-2.424,0.064-3.631,0.056
														l-3.626-0.016c-2.421-0.011-4.847-0.022-7.279-0.033c-9.73-0.044-19.553-0.088-29.464-0.133
														c-19.822-0.09-39.995-0.182-60.468-0.275c-10.236-0.047-20.547-0.094-30.927-0.142
														c-5.19-0.024-10.397-0.048-15.62-0.072c-5.239,0.246-10.651-1.156-15.013-4.21c-4.38-3.032-7.603-7.603-9.095-12.668
														c-0.803-2.526-0.942-5.213-0.932-7.812c0.011-2.604,0.022-5.204,0.033-7.8c0.044-10.383,0.088-20.697,0.132-30.936
														c0.088-20.478,0.174-40.657,0.26-60.484c0.173-39.654,0.34-77.904,0.499-114.341
														c0.162-36.437,0.317-71.061,0.461-103.465c0.074-16.202,0.145-31.849,0.213-46.889c0.009-1.88,0.017-3.751,0.026-5.612
														c0.017-0.932,0.087-1.871,0.141-2.801c0.166-0.918,0.241-1.852,0.483-2.75c0.859-3.611,2.545-6.988,4.895-9.763
														c2.367-2.76,5.33-4.944,8.588-6.366c3.256-1.454,6.825-1.957,10.273-1.901c6.889,0.035,13.613,0.069,20.167,0.102
														c3.277,0.017,6.511,0.033,9.702,0.05c1.595,0.008,3.18,0.016,4.753,0.024c1.586-0.072,3.227,0.368,4.525,1.283
														c1.297,0.915,2.292,2.229,2.8,3.707c0.584,1.48,0.437,3.075,0.449,4.557c-0.004,0.753-0.007,1.504-0.011,2.252
														c-0.001,0.75-0.031,1.495,0.064,2.211c0.179,1.44,0.782,2.822,1.721,3.9c0.92,1.095,2.185,1.879,3.547,2.222
														c0.686,0.174,1.375,0.226,2.094,0.215c0.714,0.004,1.424,0.007,2.132,0.011c2.83,0.015,5.614,0.029,8.35,0.044
														c10.945,0.058,21.13,0.113,30.506,0.163c4.688,0.026,9.173,0.05,13.45,0.073c1.063-0.014,2.139,0.057,3.154-0.028
														c1.021-0.112,1.998-0.461,2.847-0.989c1.709-1.055,2.873-2.811,3.272-4.666c0.216-0.928,0.183-1.875,0.192-2.814
														c0.005-0.936,0.01-1.859,0.015-2.767c0.015-0.903-0.037-1.811,0.131-2.694c0.155-0.878,0.456-1.715,0.879-2.468
														c0.837-1.515,2.192-2.657,3.695-3.241c1.516-0.653,3.128-0.447,4.588-0.472c5.93,0.037,10.949,0.069,15.007,0.094
														c4.053,0.03,7.145,0.053,9.228,0.068C325.497,41.652,326.562,41.675,326.562,41.675s-1.065,0.013-3.144,0.012
														c-2.083-0.004-5.175-0.009-9.229-0.017c-4.058-0.012-9.077-0.027-15.007-0.044c-1.474,0.028-3.056-0.168-4.527,0.472
														c-1.465,0.574-2.786,1.691-3.6,3.173c-0.411,0.736-0.704,1.554-0.853,2.412c-0.162,0.855-0.11,1.753-0.123,2.663
														c-0.003,0.909-0.006,1.831-0.009,2.767c-0.008,0.929,0.029,1.9-0.191,2.856c-0.406,1.905-1.597,3.714-3.357,4.804
														c-0.874,0.546-1.883,0.908-2.936,1.026c-1.065,0.089-2.105,0.018-3.179,0.035c-4.276-0.016-8.762-0.033-13.45-0.051
														c-9.376-0.037-19.562-0.077-30.507-0.119c-2.736-0.011-5.52-0.022-8.35-0.034c-0.708-0.003-1.418-0.006-2.131-0.009
														c-0.707,0.013-1.459-0.039-2.167-0.221c-1.425-0.357-2.747-1.176-3.708-2.316c-0.98-1.124-1.611-2.563-1.799-4.063
														c-0.1-0.757-0.068-1.509-0.069-2.252c0.003-0.748,0.006-1.498,0.008-2.252c-0.013-1.507,0.126-3.037-0.436-4.447
														c-0.488-1.416-1.443-2.672-2.682-3.544c-1.251-0.872-2.777-1.288-4.337-1.219c-1.574-0.007-3.158-0.013-4.753-0.02
														c-3.191-0.013-6.425-0.027-9.702-0.04c-6.554-0.027-13.278-0.055-20.167-0.084c-3.424-0.051-6.914,0.445-10.122,1.879
														c-3.203,1.402-6.117,3.553-8.443,6.269c-2.309,2.732-3.963,6.053-4.805,9.603c-0.238,0.882-0.309,1.801-0.473,2.703
														c-0.051,0.917-0.121,1.831-0.137,2.76c-0.007,1.861-0.014,3.732-0.022,5.612c-0.059,15.041-0.12,30.688-0.183,46.889
														c-0.13,32.404-0.268,67.028-0.413,103.465c-0.149,36.437-0.306,74.687-0.468,114.341
														c-0.083,19.827-0.167,40.005-0.252,60.484c-0.043,10.239-0.086,20.554-0.13,30.937c-0.011,2.596-0.022,5.196-0.033,7.8
														c-0.009,2.594,0.125,5.184,0.911,7.665c1.459,4.95,4.61,9.422,8.893,12.386c4.283,2.985,9.515,4.355,14.717,4.116
														c5.223,0.024,10.43,0.048,15.62,0.072c10.38,0.048,20.691,0.096,30.927,0.144c20.473,0.096,40.645,0.19,60.468,0.283
														c9.911,0.047,19.735,0.093,29.464,0.139c2.432,0.012,4.859,0.023,7.279,0.035l3.626,0.017
														c1.208,0.009,2.416,0.025,3.601-0.054c4.77-0.214,9.375-2.074,13.061-5.005c1.822-1.499,3.415-3.256,4.727-5.2
														c1.318-1.945,2.251-4.121,2.912-6.352c0.703-2.238,0.859-4.575,0.896-6.904c0.01-2.345,0.021-4.684,0.031-7.016
														c0.041-9.328,0.082-18.549,0.122-27.657c0.329-72.862,0.625-138.482,0.874-193.592
														c0.268-55.107,0.485-99.705,0.635-130.53c0.02-3.853,0.04-7.49,0.058-10.906c0.054-3.41-0.538-6.593-1.655-9.333
														c-1.101-2.747-2.651-5.047-4.325-6.891c-1.68-1.841-3.459-3.287-5.214-4.295c-3.472-2.11-6.572-2.806-8.614-3.074
														c-1.021-0.207-1.815-0.158-2.337-0.22C326.828,41.699,326.562,41.675,326.562,41.675z"/>
												</g>
											</g>
										</g>
									</g>
								</g>
							</g>
						</g>
					</g>
				</g>
			</g>
		</g>
		<g>
			<g>
				<path style="fill:#E8505B;" d="M299.39,158.514l-2.273-2.698l6.765-3.624l-31.409-10.631l10.631,30.442l3.866-5.074
					c0,0,20.323,35.762,0,57.502c-20.183,21.59-43.972,16.912-43.972,16.912l4.59,14.98c0,0,37.449,2.658,57.502-31.167
					C325.143,191.332,299.39,158.514,299.39,158.514z"/>
			</g>
			<g>
				<path style="fill:#E8505B;" d="M205.207,233.547l2.273,2.698l-6.765,3.624l31.409,10.631l-10.631-30.442l-3.866,5.074
					c0,0-20.323-35.762,0-57.502c20.183-21.59,43.972-16.913,43.972-16.913l-4.591-14.98c0,0-37.449-2.658-57.502,31.167
					C179.454,200.729,205.207,233.547,205.207,233.547z"/>
			</g>
			<g>
				<path style="fill:#E8505B;" d="M299.39,158.514l-2.273-2.698l6.765-3.624l-31.409-10.631l10.631,30.442l3.866-5.074
					c0,0,20.323,35.762,0,57.502c-20.183,21.59-43.972,16.912-43.972,16.912l4.59,14.98c0,0,37.449,2.658,57.502-31.167
					C325.143,191.332,299.39,158.514,299.39,158.514z"/>
			</g>
			<g>
				<path style="fill:#E8505B;" d="M205.207,233.547l2.273,2.698l-6.765,3.624l31.409,10.631l-10.631-30.442l-3.866,5.074
					c0,0-20.323-35.762,0-57.502c20.183-21.59,43.972-16.913,43.972-16.913l-4.591-14.98c0,0-37.449-2.658-57.502,31.167
					C179.454,200.729,205.207,233.547,205.207,233.547z"/>
			</g>
			<g style="opacity:0.8;">
				<path style="fill:#FFFFFF;" d="M299.39,158.514l-2.273-2.698l6.765-3.624l-31.409-10.631l10.631,30.442l3.866-5.074
					c0,0,20.323,35.762,0,57.502c-20.183,21.59-43.972,16.912-43.972,16.912l4.59,14.98c0,0,37.449,2.658,57.502-31.167
					C325.143,191.332,299.39,158.514,299.39,158.514z"/>
			</g>
			<g style="opacity:0.8;">
				<path style="fill:#FFFFFF;" d="M205.207,233.547l2.273,2.698l-6.765,3.624l31.409,10.631l-10.631-30.442l-3.866,5.074
					c0,0-20.323-35.762,0-57.502c20.183-21.59,43.972-16.913,43.972-16.913l-4.591-14.98c0,0-37.449-2.658-57.502,31.167
					C179.454,200.729,205.207,233.547,205.207,233.547z"/>
			</g>
			<g>
				<g>
					<g>
						<g>
							<g>
								<g>
									<g>
										<path style="fill-rule:evenodd;clip-rule:evenodd;fill:#E8505B;" d="M270.208,178.273c1.506,1.61,2.77,3.397,3.777,5.302
											l6.035-0.023l2.243,9.731l-5.436,2.622c-0.07,2.154-0.424,4.314-1.074,6.422l4.283,4.25l-5.296,8.466l-5.696-1.989
											c-1.61,1.508-3.397,2.771-5.303,3.777l0.023,6.036l-9.73,2.243l-2.623-5.436c-2.154-0.07-4.313-0.425-6.421-1.076
											l-4.249,4.283l-8.468-5.295l1.99-5.696c-1.508-1.61-2.77-3.397-3.777-5.303l-6.037,0.023l-2.243-9.731l5.438-2.622
											c0.07-2.154,0.425-4.313,1.074-6.421l-4.282-4.25l5.295-8.467l5.695,1.99c1.61-1.508,3.398-2.771,5.303-3.777
											l-0.023-6.036l9.73-2.243l2.622,5.437c2.154,0.07,4.313,0.424,6.422,1.075l4.249-4.283l8.467,5.294L270.208,178.273
											L270.208,178.273z M258.299,186.24c-5.016-3.137-11.626-1.614-14.763,3.403c-3.137,5.016-1.613,11.626,3.403,14.763
											c5.017,3.137,11.626,1.613,14.763-3.403C264.839,195.986,263.316,189.377,258.299,186.24z"/>
									</g>
								</g>
							</g>
						</g>
					</g>
				</g>
			</g>
			<g style="opacity:0.6;">
				<g>
					<g>
						<g>
							<g>
								<g>
									<g>
										<path style="fill-rule:evenodd;clip-rule:evenodd;fill:#FFFFFF;" d="M258.299,186.24
											c-5.016-3.137-11.626-1.614-14.763,3.403c-3.137,5.016-1.613,11.626,3.403,14.763c5.017,3.137,11.626,1.613,14.763-3.403
											C264.839,195.986,263.316,189.377,258.299,186.24z"/>
									</g>
								</g>
							</g>
						</g>
					</g>
				</g>
			</g>
		</g>
		<g>
			<g>
				<path style="fill:#263238;" d="M219.69,294.792v-6.411h1.183v6.363c0,2.654,1.247,3.869,3.421,3.869
					c2.19,0,3.437-1.215,3.437-3.869v-6.363h1.151v6.411c0,3.213-1.727,4.876-4.589,4.876
					C221.433,299.669,219.69,298.006,219.69,294.792z"/>
			</g>
			<g>
				<path style="fill:#263238;" d="M241.203,292.219c0,2.382-1.726,3.821-4.572,3.821h-3.006v3.533h-1.183v-11.192h4.189
					C239.477,288.381,241.203,289.82,241.203,292.219z M240.021,292.219c0-1.791-1.184-2.814-3.422-2.814h-2.974v5.596h2.974
					C238.837,295.001,240.021,293.978,240.021,292.219z"/>
			</g>
			<g>
				<path style="fill:#263238;" d="M243.756,288.381h4.557c3.581,0,5.996,2.303,5.996,5.596c0,3.293-2.414,5.595-5.996,5.595h-4.557
					V288.381z M248.249,298.55c2.974,0,4.892-1.887,4.892-4.572c0-2.686-1.918-4.573-4.892-4.573h-3.309v9.145H248.249z"/>
			</g>
			<g>
				<path style="fill:#263238;" d="M263.813,296.583h-6.235l-1.343,2.989h-1.23l5.116-11.192h1.167l5.116,11.192h-1.247
					L263.813,296.583z M263.382,295.624l-2.686-6.011l-2.686,6.011H263.382z"/>
			</g>
			<g>
				<path style="fill:#263238;" d="M269.868,289.404h-3.934v-1.023h9.049v1.023h-3.934v10.169h-1.182V289.404z"/>
			</g>
			<g>
				<path style="fill:#263238;" d="M284.779,298.55v1.023h-7.914v-11.192h7.674v1.023h-6.49v3.981h5.787v1.008h-5.787v4.157H284.779
					z"/>
			</g>
		</g>
		<g>
			<g>
				<g>
					<g>
						<g>
							<g>
								<path style="fill:#263238;" d="M335.334,77.678c0.001,0.105-4.052,0.225-9.051,0.266c-5.001,0.041-9.055-0.01-9.055-0.116
									c-0.001-0.105,4.051-0.225,9.052-0.266C331.278,77.521,335.333,77.573,335.334,77.678z"/>
							</g>
						</g>
					</g>
				</g>
			</g>
			<g>
				<g>
					<g>
						<g>
							<g>
								<path style="fill:#263238;" d="M335.372,82.311c0.001,0.105-4.052,0.224-9.051,0.266c-5.001,0.042-9.055-0.011-9.055-0.116
									c-0.001-0.105,4.051-0.224,9.052-0.266C331.317,82.154,335.371,82.206,335.372,82.311z"/>
							</g>
						</g>
					</g>
				</g>
			</g>
			<g>
				<g>
					<g>
						<g>
							<g>
								<path style="fill:#263238;" d="M335.41,86.944c0.001,0.105-4.052,0.224-9.051,0.266c-5.001,0.041-9.055-0.011-9.055-0.116
									c-0.001-0.105,4.051-0.224,9.052-0.266C331.355,86.786,335.409,86.839,335.41,86.944z"/>
							</g>
						</g>
					</g>
				</g>
			</g>
		</g>
		<g>
			<g>
				<g>
					<g>
						<g>
							<path style="fill:#263238;" d="M170.648,92.232c0.007-0.007,0.136-0.015,0.376-0.025c0.297-0.01,0.641-0.021,1.047-0.035
								c0.988-0.023,2.28-0.054,3.866-0.092l-0.107,0.109c-0.014-0.857-0.029-1.793-0.045-2.803
								c0.005-0.521-0.045-1.012,0.006-1.614c0.104-0.6,0.639-1.13,1.297-1.192c0.623-0.012,1.172-0.04,1.847-0.009
								c0.697,0.085,1.289,0.755,1.268,1.493c0.015,1.307,0.03,2.673,0.046,4.089l-0.179-0.176c1.566-0.016,3.197-0.032,4.877-0.05
								l-0.185,0.189c-0.017-1.964-0.035-3.996-0.054-6.077c-0.004-0.519-0.009-1.035-0.013-1.548
								c-0.002-0.477-0.292-0.796-0.686-1.152c-0.722-0.711-1.433-1.412-2.132-2.102c-0.698-0.689-1.384-1.366-2.057-2.03
								c-0.336-0.332-0.668-0.66-0.997-0.985c-0.343-0.33-0.612-0.671-1.009-0.753c-0.385-0.104-0.809-0.022-1.119,0.214
								c-0.295,0.25-0.61,0.603-0.908,0.893c-0.601,0.606-1.184,1.195-1.75,1.765c-1.101,1.143-2.247,2.188-3.081,3.175
								c-0.351,0.545-0.22,1.213-0.245,1.82c-0.001,0.604-0.002,1.178-0.004,1.718c-0.006,1.054-0.012,1.977-0.017,2.768
								c-0.008,0.707-0.014,1.292-0.02,1.77C170.665,92.002,170.657,92.222,170.648,92.232c-0.009,0.009-0.02-0.192-0.034-0.586
								c-0.013-0.471-0.029-1.046-0.049-1.743c-0.018-0.798-0.039-1.728-0.063-2.791c-0.01-0.551-0.021-1.136-0.032-1.752
								c-0.005-0.312-0.01-0.632-0.015-0.959c-0.003-0.346,0.086-0.704,0.269-1.021c0.902-1.106,1.979-2.084,3.088-3.261
								c0.561-0.575,1.141-1.169,1.736-1.779c0.313-0.307,0.569-0.613,0.941-0.933c0.39-0.3,0.926-0.407,1.414-0.278
								c0.519,0.114,0.857,0.54,1.171,0.838c0.33,0.323,0.664,0.65,1.001,0.98c0.675,0.661,1.363,1.336,2.063,2.023
								c0.701,0.688,1.413,1.387,2.136,2.097c0.172,0.181,0.378,0.335,0.545,0.59c0.158,0.243,0.248,0.531,0.256,0.822
								c0.005,0.515,0.009,1.034,0.014,1.555c0.016,2.081,0.031,4.113,0.046,6.077l0.002,0.187l-0.187,0.001
								c-1.68,0.011-3.311,0.021-4.877,0.031l-0.179,0.001l-0.001-0.178c-0.007-1.416-0.014-2.782-0.021-4.089
								c0.021-0.589-0.438-1.109-0.985-1.184c-0.561-0.03-1.223-0.01-1.769-0.005c-0.524,0.043-0.962,0.464-1.052,0.948
								c-0.047,0.49-0.011,1.062-0.021,1.558c0,1.01,0.001,1.946,0.001,2.804l0,0.11l-0.107-0.001
								c-1.613-0.011-2.926-0.021-3.931-0.028c-0.398-0.007-0.734-0.013-1.024-0.018C170.756,92.245,170.641,92.239,170.648,92.232z
								"/>
						</g>
					</g>
				</g>
			</g>
		</g>
		<g>
			<g>
				<path style="fill:#263238;" d="M290.498,88.279c0,0.144-15.238,0.26-34.031,0.26c-18.799,0-34.034-0.117-34.034-0.26
					s15.235-0.26,34.034-0.26C275.26,88.018,290.498,88.135,290.498,88.279z"/>
			</g>
		</g>
		<g>
			<g>
				<path style="fill:#E8505B;" d="M288.732,404.33h-71.456c-9.126,0-16.524-7.398-16.524-16.524l0,0
					c0-9.126,7.398-16.525,16.524-16.525h71.456c9.126,0,16.524,7.398,16.524,16.525l0,0
					C305.257,396.932,297.859,404.33,288.732,404.33z"/>
			</g>
			<g>
				<path style="fill:#FFFFFF;" d="M239.37,390.223l0.597-1.323c0.641,0.467,1.595,0.792,2.506,0.792
					c1.042,0,1.465-0.347,1.465-0.814c0-1.421-4.415-0.445-4.415-3.266c0-1.291,1.041-2.365,3.2-2.365
					c0.954,0,1.931,0.228,2.636,0.673l-0.542,1.334c-0.705-0.401-1.432-0.597-2.104-0.597c-1.042,0-1.443,0.391-1.443,0.868
					c0,1.399,4.416,0.434,4.416,3.223c0,1.268-1.053,2.353-3.223,2.353C241.257,391.102,240.043,390.745,239.37,390.223z"/>
				<path style="fill:#FFFFFF;" d="M250.53,390.69c-0.348,0.25-0.857,0.369-1.378,0.369c-1.378,0-2.181-0.705-2.181-2.094v-2.398
					h-0.9v-1.303h0.9v-1.421h1.692v1.421h1.454v1.303h-1.454v2.376c0,0.499,0.271,0.77,0.727,0.77c0.25,0,0.499-0.075,0.684-0.217
					L250.53,390.69z"/>
				<path style="fill:#FFFFFF;" d="M256.645,387.641v3.331h-1.584v-0.727c-0.314,0.531-0.922,0.814-1.779,0.814
					c-1.367,0-2.181-0.76-2.181-1.768c0-1.03,0.727-1.747,2.506-1.747h1.346c0-0.727-0.435-1.149-1.346-1.149
					c-0.618,0-1.258,0.206-1.682,0.542l-0.607-1.183c0.641-0.455,1.584-0.705,2.518-0.705
					C255.615,385.048,256.645,385.873,256.645,387.641z M254.953,389.127v-0.597h-1.161c-0.792,0-1.041,0.293-1.041,0.684
					c0,0.424,0.357,0.705,0.954,0.705C254.269,389.919,254.757,389.659,254.953,389.127z"/>
				<path style="fill:#FFFFFF;" d="M261.795,385.048v1.563c-0.141-0.011-0.249-0.021-0.379-0.021c-0.934,0-1.552,0.51-1.552,1.627
					v2.756h-1.692v-5.837h1.616v0.771C260.2,385.341,260.894,385.048,261.795,385.048z"/>
				<path style="fill:#FFFFFF;" d="M266.772,390.69c-0.348,0.25-0.857,0.369-1.378,0.369c-1.378,0-2.181-0.705-2.181-2.094v-2.398
					h-0.9v-1.303h0.9v-1.421h1.692v1.421h1.454v1.303h-1.454v2.376c0,0.499,0.272,0.77,0.727,0.77c0.25,0,0.499-0.075,0.684-0.217
					L266.772,390.69z"/>
			</g>
		</g>
		<g>
			<g>
				<path style="fill:#263238;" d="M320.912,325.926c0,0.144-30.722,0.26-68.611,0.26c-37.902,0-68.617-0.117-68.617-0.26
					c0-0.144,30.715-0.26,68.617-0.26C290.19,325.666,320.912,325.783,320.912,325.926z"/>
			</g>
		</g>
		<g>
			<g>
				<path style="fill:#263238;" d="M293.575,334.338c0,0.144-18.481,0.26-41.274,0.26c-22.801,0-41.278-0.117-41.278-0.26
					c0-0.144,18.477-0.26,41.278-0.26C275.093,334.078,293.575,334.194,293.575,334.338z"/>
			</g>
		</g>
	</g>
</g>
<g id="Character">
	<g>
		<g>
			<g>
				<g>
					<g>
						<g>
							<g>
								<g>
									<polygon style="fill:#E8505B;" points="103.696,458.243 97.621,480.706 117.366,482.508 121.515,461.123 									"/>
								</g>
							</g>
						</g>
					</g>
					<g>
						<g>
							<g>
								<g>
									<g>
										<path style="fill:#263238;" d="M117.939,480.678c-0.006,0.074-1.112,0.047-2.892-0.098
											c-1.78-0.143-4.23-0.415-6.928-0.761c-2.599-0.349-4.951-0.665-6.901-0.926c-1.764-0.247-2.855-0.415-2.848-0.493
											c0.007-0.073,1.112-0.042,2.891,0.106c1.779,0.147,4.229,0.421,6.928,0.768c2.599,0.346,4.95,0.66,6.901,0.92
											C116.855,480.437,117.947,480.6,117.939,480.678z"/>
									</g>
								</g>
							</g>
						</g>
					</g>
					<g style="opacity:0.6;">
						<g>
							<g>
								<g>
									<polyline style="fill:#FFFFFF;" points="97.621,480.706 117.366,482.508 117.685,480.861 98.191,478.383 97.641,480.483 
																			"/>
								</g>
							</g>
						</g>
					</g>
				</g>
			</g>
			<g>
				<g>
					<g>
						<g>
							<path style="fill:#263238;" d="M107.43,479.707c-0.124-0.031,0.716-3.884,1.877-8.606c1.162-4.724,2.204-8.527,2.328-8.496
								c0.124,0.031-0.716,3.884-1.878,8.607C108.597,475.933,107.555,479.737,107.43,479.707z"/>
						</g>
					</g>
				</g>
			</g>
			<g>
				<g>
					<g>
						<g>
							<path style="fill:#263238;" d="M116.848,480.532c-0.121-0.005,0.63-1.612,0.045-4.176c-0.301-1.25-0.957-2.704-2.161-3.909
								c-1.185-1.212-2.963-2.058-4.914-2.258c-1.955-0.188-3.86,0.283-5.288,1.202c-1.446,0.906-2.441,2.144-3.075,3.267
								c-1.256,2.303-1.134,4.035-1.247,4.006c-0.016,0-0.026-0.103-0.029-0.298c-0.01-0.196,0.007-0.484,0.046-0.855
								c0.083-0.739,0.332-1.809,0.94-3.008c0.618-1.182,1.625-2.498,3.135-3.472c1.494-0.989,3.506-1.502,5.563-1.303
								c2.054,0.209,3.932,1.117,5.172,2.419c1.255,1.292,1.905,2.83,2.177,4.139c0.26,1.323,0.169,2.427,0.007,3.153
								c-0.085,0.364-0.165,0.642-0.243,0.823C116.907,480.445,116.863,480.537,116.848,480.532z"/>
						</g>
					</g>
				</g>
			</g>
		</g>
		<g>
			<g>
				<g>
					<g>
						<g>
							<path style="fill:#E8505B;" d="M185.223,452.215l-1.322,19.957c0,0,19.864,6.592,19.978,10.304l-38.81,0.281l0.784-31.181
								L185.223,452.215z"/>
						</g>
					</g>
				</g>
				<g style="opacity:0.6;">
					<g>
						<g>
							<g>
								<path style="fill:#FFFFFF;" d="M171.958,470.129c-0.757,0.183-1.301,1.011-1.15,1.775c0.151,0.764,0.989,1.324,1.749,1.155
									c0.76-0.169,1.444-1.144,1.208-1.885c-0.236-0.742-1.255-1.347-1.952-1"/>
							</g>
						</g>
					</g>
				</g>
				<g style="opacity:0.6;">
					<g>
						<g>
							<path style="fill:#FFFFFF;" d="M165.07,482.757l0.079-3.143l37.484,1.035c0,0,1.247,0.538,1.444,2.108L165.07,482.757z"/>
						</g>
					</g>
				</g>
				<g>
					<g>
						<g>
							<g>
								<path style="fill:#263238;" d="M184.536,471.994c-0.012,0.189-0.962,0.246-1.912,0.827
									c-0.966,0.556-1.471,1.362-1.643,1.282c-0.174-0.042,0.143-1.166,1.306-1.849
									C183.444,471.561,184.582,471.822,184.536,471.994z"/>
							</g>
						</g>
					</g>
				</g>
				<g>
					<g>
						<g>
							<g>
								<path style="fill:#263238;" d="M188.553,473.8c0.038,0.185-0.792,0.482-1.46,1.264c-0.69,0.762-0.879,1.623-1.067,1.609
									c-0.179,0.024-0.277-1.089,0.572-2.045C187.438,473.665,188.555,473.619,188.553,473.8z"/>
							</g>
						</g>
					</g>
				</g>
				<g>
					<g>
						<g>
							<g>
								<path style="fill:#263238;" d="M190.717,478.739c-0.173,0.035-0.408-0.919,0.109-1.942c0.51-1.026,1.416-1.408,1.491-1.248
									c0.102,0.159-0.49,0.698-0.902,1.544C190.984,477.929,190.905,478.726,190.717,478.739z"/>
							</g>
						</g>
					</g>
				</g>
				<g>
					<g>
						<g>
							<g>
								<path style="fill:#263238;" d="M184.333,467.412c-0.085,0.17-0.946-0.117-2.019-0.077c-1.073,0.019-1.917,0.353-2.011,0.187
									c-0.106-0.14,0.729-0.817,1.993-0.846C183.56,466.637,184.43,467.266,184.333,467.412z"/>
							</g>
						</g>
					</g>
				</g>
			</g>
			<g>
				<g>
					<g>
						<g>
							<path style="fill:#263238;" d="M184.525,463.381c0,0.079-0.752,0.173-1.942-0.069c-0.592-0.121-1.288-0.337-2.013-0.686
								c-0.363-0.175-0.732-0.382-1.098-0.626c-0.175-0.12-0.384-0.243-0.573-0.474c-0.204-0.204-0.308-0.71-0.056-1.01
								c0.208-0.292,0.563-0.41,0.843-0.408c0.286-0.001,0.516,0.064,0.726,0.123c0.429,0.118,0.829,0.273,1.195,0.451
								c0.731,0.359,1.32,0.804,1.756,1.23c0.875,0.861,1.16,1.577,1.095,1.612c-0.088,0.06-0.508-0.546-1.403-1.262
								c-0.446-0.356-1.019-0.728-1.703-1.029c-0.343-0.149-0.713-0.279-1.105-0.378c-0.408-0.12-0.757-0.134-0.868,0.046
								c-0.04,0.069-0.046,0.096,0.036,0.219c0.085,0.114,0.249,0.227,0.421,0.347c0.336,0.234,0.676,0.439,1.009,0.618
								c0.667,0.356,1.307,0.605,1.856,0.777C183.802,463.204,184.531,463.279,184.525,463.381z"/>
						</g>
					</g>
				</g>
			</g>
			<g>
				<g>
					<g>
						<g>
							<path style="fill:#263238;" d="M184.27,463.645c-0.068,0.027-0.423-0.663-0.455-1.892c-0.014-0.609,0.071-1.345,0.329-2.119
								c0.131-0.386,0.305-0.78,0.531-1.165c0.239-0.376,0.532-0.881,1.269-0.943c0.384-0.003,0.694,0.306,0.795,0.566
								c0.12,0.266,0.139,0.492,0.178,0.718c0.058,0.455,0.036,0.899-0.038,1.308c-0.147,0.822-0.506,1.499-0.89,1.982
								c-0.789,0.982-1.586,1.185-1.6,1.12c-0.06-0.097,0.611-0.443,1.22-1.391c0.3-0.467,0.574-1.088,0.67-1.807
								c0.049-0.358,0.055-0.739-0.002-1.124c-0.048-0.414-0.193-0.751-0.348-0.714c-0.193-0.009-0.53,0.292-0.699,0.616
								c-0.21,0.342-0.379,0.693-0.513,1.038c-0.264,0.694-0.391,1.362-0.435,1.927C184.193,462.904,184.374,463.619,184.27,463.645
								z"/>
						</g>
					</g>
				</g>
			</g>
		</g>
		<g>
			<g>
				<g>
					<polygon style="fill:#263238;" points="185.224,278.832 126.09,278.387 97.515,466.066 122.057,469.181 153.51,314.864 
						162.923,469.73 162.948,470.191 189.489,469.727 					"/>
				</g>
			</g>
			<g>
				<g>
					<path style="fill:#455A64;" d="M158.328,294.041c-0.019-0.018,0.407-0.044,1.222-0.079c0.886-0.033,2.077-0.076,3.557-0.131
						c3.169-0.09,7.565-0.214,12.78-0.362l0.243-0.007l0.001,0.246c0.009,3.708,0.019,7.856,0.03,12.258l0,0.118l-0.087,0.081
						c-0.71,0.652-1.464,1.346-2.226,2.047c-2.277,2.087-4.479,4.105-6.561,6.013l-0.174,0.159l-0.175-0.156
						c-3.252-2.898-6.219-5.543-8.748-7.797l-0.072-0.064l0.001-0.093c0.046-3.728,0.083-6.79,0.111-8.994
						c0.022-1.002,0.04-1.808,0.053-2.423C158.298,294.307,158.313,294.026,158.328,294.041c0.015,0.015,0.03,0.325,0.046,0.897
						c0.013,0.627,0.031,1.448,0.053,2.47c0.027,2.173,0.065,5.191,0.111,8.866l-0.071-0.157c2.548,2.232,5.538,4.851,8.815,7.721
						l-0.349,0.003c2.078-1.913,4.276-3.937,6.548-6.028c0.763-0.7,1.518-1.393,2.228-2.045l-0.087,0.198
						c0.011-4.402,0.021-8.549,0.03-12.258l0.244,0.239c-5.155,0.048-9.5,0.09-12.632,0.119c-1.503,0.002-2.713,0.004-3.613,0.005
						c-0.386-0.004-0.705-0.007-0.971-0.01C158.457,294.057,158.337,294.05,158.328,294.041z"/>
				</g>
			</g>
			<g>
				<g>
					<path style="fill:#455A64;" d="M130.497,293.228c-0.016-0.02,0.363,0.001,1.091,0.056c0.799,0.065,1.863,0.152,3.182,0.26
						c2.849,0.258,6.795,0.616,11.5,1.042l0.238,0.022l-0.029,0.241c-0.433,3.627-0.927,7.761-1.454,12.171l-0.013,0.109
						l-0.086,0.069c-0.814,0.65-1.676,1.338-2.549,2.035c-2.176,1.732-4.285,3.41-6.289,5.005l-0.206,0.164l-0.162-0.205
						c-2.54-3.212-4.871-6.158-6.875-8.692l-0.057-0.072l0.012-0.088c0.497-3.68,0.906-6.714,1.202-8.905
						c0.144-0.992,0.26-1.792,0.349-2.404C130.434,293.49,130.484,293.211,130.497,293.228c0.014,0.017-0.009,0.329-0.063,0.901
						c-0.063,0.628-0.145,1.448-0.247,2.465c-0.237,2.166-0.565,5.165-0.963,8.802l-0.045-0.159c2.026,2.517,4.382,5.443,6.95,8.633
						l-0.367-0.041c2.001-1.6,4.106-3.283,6.278-5.019c0.874-0.696,1.737-1.384,2.551-2.033l-0.099,0.178
						c0.551-4.407,1.069-8.538,1.522-12.163l0.21,0.262c-4.635-0.517-8.522-0.951-11.329-1.264c-1.336-0.161-2.412-0.29-3.221-0.387
						C130.923,293.307,130.513,293.248,130.497,293.228z"/>
				</g>
			</g>
			<g>
				<g>
					<path style="fill:#455A64;" d="M166.676,321.715c-0.039,0.067-1.053-0.452-2.681-1.303c-1.628-0.851-3.876-2.025-6.381-3.276
						c-2.507-1.25-4.797-2.339-6.457-3.128c-1.659-0.789-2.683-1.287-2.653-1.358c0.028-0.066,1.105,0.307,2.808,1.008
						c1.703,0.701,4.027,1.739,6.543,2.993c2.514,1.255,4.742,2.487,6.326,3.426C165.766,321.016,166.713,321.652,166.676,321.715z"
						/>
				</g>
			</g>
			<g>
				<g>
					<path style="fill:#455A64;" d="M165.916,326.272c-0.022,0.059-0.822-0.16-2.017-0.759c-1.193-0.595-2.758-1.617-4.218-3.051
						c-1.457-1.439-2.503-2.988-3.115-4.172c-0.617-1.186-0.848-1.982-0.789-2.005c0.156-0.085,1.413,2.998,4.285,5.791
						C162.896,324.904,165.998,326.114,165.916,326.272z"/>
				</g>
			</g>
			<g>
				<g>
					<path style="fill:#455A64;" d="M182.609,380.502c0.031,0.01-0.047,0.364-0.268,0.98c-0.219,0.616-0.612,1.485-1.233,2.483
						c-1.217,1.987-3.553,4.473-6.901,5.89c-3.352,1.411-6.763,1.349-9.036,0.835c-1.148-0.251-2.045-0.576-2.639-0.849
						c-0.596-0.272-0.903-0.463-0.889-0.492c0.04-0.098,1.336,0.569,3.6,0.965c2.238,0.407,5.527,0.4,8.753-0.958
						c3.223-1.364,5.522-3.715,6.792-5.602C182.084,381.856,182.511,380.462,182.609,380.502z"/>
				</g>
			</g>
			<g>
				<g>
					<path style="fill:#455A64;" d="M178.721,378.903c0.027,0.056-0.801,0.528-2.26,0.997c-1.453,0.476-3.549,0.888-5.882,0.971
						c-2.333,0.099-4.44-0.12-5.943-0.349c-1.504-0.24-2.414-0.489-2.402-0.555c0.026-0.185,3.731,0.534,8.323,0.363
						c2.291-0.082,4.345-0.424,5.798-0.798C177.813,379.165,178.687,378.822,178.721,378.903z"/>
				</g>
			</g>
			<g>
				<g>
					<path style="fill:#455A64;" d="M134.755,380.019c0.041,0.044-0.683,0.827-2.057,1.863c-1.369,1.037-3.426,2.276-5.893,3.198
						c-2.47,0.916-4.837,1.324-6.55,1.435c-1.717,0.115-2.777-0.004-2.774-0.064c0.001-0.089,1.057-0.107,2.737-0.317
						c1.679-0.206,3.981-0.665,6.399-1.562c2.415-0.904,4.456-2.062,5.861-3.004C133.886,380.63,134.697,379.952,134.755,380.019z"
						/>
				</g>
			</g>
			<g>
				<g>
					<path style="fill:#455A64;" d="M129.571,379.791c0.033,0.131-2.392,0.696-5.423,0.445c-3.033-0.232-5.337-1.174-5.284-1.299
						c0.048-0.157,2.373,0.534,5.327,0.759C127.143,379.943,129.548,379.629,129.571,379.791z"/>
				</g>
			</g>
			<g>
				<g>
					<path style="fill:#455A64;" d="M153.158,316.159c0.026,0.06-0.966,0.576-2.659,1.204c-1.691,0.63-4.097,1.332-6.822,1.771
						c-2.727,0.434-5.233,0.518-7.035,0.448c-1.805-0.068-2.908-0.249-2.902-0.314c0.007-0.084,1.117-0.039,2.905-0.069
						c1.788-0.028,4.255-0.171,6.947-0.599c2.689-0.433,5.078-1.068,6.785-1.599C152.084,316.47,153.125,316.081,153.158,316.159z"
						/>
				</g>
			</g>
			<g>
				<g>
					<g>
						<path style="fill:#455A64;" d="M151.544,310.1c0.149-0.001,0.277,0.463,0.285,1.036c0.008,0.573-0.107,1.04-0.257,1.043
							c-0.149,0.003-0.277-0.461-0.284-1.036C151.28,310.568,151.395,310.101,151.544,310.1z"/>
					</g>
				</g>
				<g>
					<g>
						<path style="fill:#455A64;" d="M151.549,305.942c0.149,0.002,0.268,0.468,0.264,1.041c-0.003,0.573-0.127,1.038-0.277,1.038
							c-0.149,0-0.268-0.466-0.264-1.041C151.276,306.405,151.4,305.94,151.549,305.942z"/>
					</g>
				</g>
				<g>
					<g>
						<path style="fill:#455A64;" d="M151.634,301.785c0.149,0.005,0.259,0.473,0.244,1.046c-0.015,0.573-0.148,1.035-0.297,1.032
							c-0.149-0.003-0.259-0.471-0.244-1.046C151.352,302.243,151.485,301.781,151.634,301.785z"/>
					</g>
				</g>
				<g>
					<g>
						<path style="fill:#455A64;" d="M151.801,297.631c0.149,0.008,0.249,0.478,0.224,1.051c-0.026,0.573-0.168,1.032-0.317,1.026
							c-0.149-0.006-0.249-0.476-0.224-1.051C151.509,298.083,151.651,297.623,151.801,297.631z"/>
					</g>
				</g>
				<g>
					<g>
						<path style="fill:#455A64;" d="M152.047,293.48c0.149,0.01,0.24,0.483,0.204,1.055c-0.037,0.572-0.188,1.029-0.337,1.02
							c-0.149-0.009-0.24-0.481-0.203-1.055C151.747,293.927,151.898,293.47,152.047,293.48z"/>
					</g>
				</g>
				<g>
					<g>
						<path style="fill:#455A64;" d="M152.374,289.336c0.149,0.013,0.231,0.487,0.183,1.058c-0.048,0.571-0.208,1.025-0.357,1.013
							c-0.149-0.012-0.231-0.485-0.183-1.058C152.066,289.776,152.225,289.323,152.374,289.336z"/>
					</g>
				</g>
				<g>
					<g>
						<path style="fill:#455A64;" d="M152.702,285.941c0.149,0.016,0.239,0.325,0.202,0.69c-0.037,0.365-0.188,0.65-0.337,0.635
							c-0.149-0.014-0.239-0.323-0.202-0.69C152.403,286.21,152.554,285.926,152.702,285.941z"/>
					</g>
				</g>
			</g>
			<g>
				<g>
					<g>
						<path style="fill:#455A64;" d="M119.272,465.064c0.147,0.029,0.174,0.509,0.062,1.072c-0.113,0.563-0.323,0.995-0.469,0.966
							c-0.146-0.029-0.174-0.509-0.061-1.072C118.916,465.467,119.126,465.035,119.272,465.064z"/>
					</g>
				</g>
				<g>
					<g>
						<path style="fill:#455A64;" d="M120.088,460.988c0.146,0.029,0.174,0.509,0.061,1.072c-0.113,0.563-0.323,0.995-0.469,0.966
							c-0.147-0.029-0.174-0.509-0.062-1.072C119.731,461.391,119.941,460.958,120.088,460.988z"/>
					</g>
				</g>
				<g>
					<g>
						<path style="fill:#455A64;" d="M120.903,456.911c0.147,0.029,0.174,0.509,0.062,1.072c-0.113,0.563-0.323,0.995-0.469,0.966
							c-0.146-0.029-0.174-0.509-0.061-1.072C120.547,457.314,120.757,456.882,120.903,456.911z"/>
					</g>
				</g>
				<g>
					<g>
						<path style="fill:#455A64;" d="M121.719,452.835c0.146,0.029,0.174,0.509,0.062,1.072c-0.113,0.563-0.323,0.996-0.469,0.966
							c-0.146-0.029-0.174-0.509-0.062-1.072C121.362,453.238,121.572,452.805,121.719,452.835z"/>
					</g>
				</g>
				<g>
					<g>
						<path style="fill:#455A64;" d="M122.534,448.758c0.147,0.029,0.174,0.51,0.062,1.072c-0.113,0.563-0.323,0.995-0.469,0.966
							c-0.146-0.029-0.174-0.509-0.061-1.072C122.178,449.161,122.388,448.729,122.534,448.758z"/>
					</g>
				</g>
				<g>
					<g>
						<path style="fill:#455A64;" d="M123.35,444.682c0.147,0.029,0.174,0.509,0.062,1.072c-0.112,0.563-0.323,0.995-0.469,0.966
							c-0.147-0.029-0.174-0.509-0.062-1.072C122.993,445.085,123.203,444.652,123.35,444.682z"/>
					</g>
				</g>
				<g>
					<g>
						<path style="fill:#455A64;" d="M124.165,440.605c0.147,0.029,0.174,0.509,0.062,1.072c-0.113,0.563-0.323,0.995-0.469,0.966
							c-0.146-0.029-0.174-0.509-0.061-1.072C123.809,441.008,124.019,440.576,124.165,440.605z"/>
					</g>
				</g>
				<g>
					<g>
						<path style="fill:#455A64;" d="M124.981,436.529c0.147,0.029,0.174,0.509,0.062,1.072c-0.113,0.563-0.323,0.995-0.469,0.966
							c-0.147-0.029-0.174-0.509-0.062-1.072C124.624,436.932,124.834,436.499,124.981,436.529z"/>
					</g>
				</g>
				<g>
					<g>
						<path style="fill:#455A64;" d="M125.796,432.452c0.146,0.029,0.174,0.509,0.062,1.072c-0.113,0.563-0.323,0.995-0.469,0.966
							c-0.146-0.029-0.174-0.509-0.061-1.072C125.44,432.855,125.65,432.423,125.796,432.452z"/>
					</g>
				</g>
				<g>
					<g>
						<path style="fill:#455A64;" d="M126.612,428.376c0.147,0.029,0.174,0.509,0.062,1.072c-0.113,0.563-0.323,0.995-0.469,0.966
							c-0.147-0.029-0.174-0.509-0.061-1.072C126.255,428.779,126.465,428.346,126.612,428.376z"/>
					</g>
				</g>
				<g>
					<g>
						<path style="fill:#455A64;" d="M127.427,424.299c0.147,0.029,0.174,0.509,0.062,1.072c-0.113,0.563-0.323,0.996-0.469,0.966
							c-0.146-0.029-0.174-0.509-0.061-1.072C127.071,424.702,127.281,424.27,127.427,424.299z"/>
					</g>
				</g>
				<g>
					<g>
						<path style="fill:#455A64;" d="M128.243,420.223c0.147,0.029,0.174,0.509,0.062,1.072c-0.113,0.563-0.323,0.995-0.469,0.966
							c-0.147-0.029-0.174-0.509-0.062-1.072C127.886,420.626,128.096,420.193,128.243,420.223z"/>
					</g>
				</g>
				<g>
					<g>
						<path style="fill:#455A64;" d="M129.058,416.146c0.147,0.029,0.174,0.509,0.061,1.072c-0.113,0.563-0.323,0.995-0.469,0.966
							c-0.146-0.029-0.174-0.509-0.061-1.072C128.702,416.549,128.912,416.117,129.058,416.146z"/>
					</g>
				</g>
				<g>
					<g>
						<path style="fill:#455A64;" d="M129.874,412.069c0.147,0.029,0.174,0.509,0.061,1.072c-0.113,0.563-0.323,0.995-0.469,0.966
							c-0.146-0.029-0.174-0.509-0.061-1.072C129.517,412.473,129.727,412.04,129.874,412.069z"/>
					</g>
				</g>
				<g>
					<g>
						<path style="fill:#455A64;" d="M130.689,407.993c0.147,0.029,0.174,0.51,0.062,1.072c-0.113,0.563-0.323,0.995-0.469,0.966
							c-0.146-0.029-0.174-0.509-0.061-1.072C130.333,408.396,130.543,407.964,130.689,407.993z"/>
					</g>
				</g>
				<g>
					<g>
						<path style="fill:#455A64;" d="M131.505,403.916c0.147,0.029,0.174,0.509,0.062,1.072c-0.113,0.563-0.323,0.995-0.469,0.966
							c-0.146-0.029-0.174-0.509-0.061-1.072C131.148,404.32,131.358,403.887,131.505,403.916z"/>
					</g>
				</g>
				<g>
					<g>
						<path style="fill:#455A64;" d="M132.32,399.84c0.146,0.029,0.174,0.509,0.062,1.072c-0.113,0.563-0.323,0.995-0.469,0.966
							c-0.146-0.029-0.174-0.509-0.062-1.072C131.964,400.243,132.174,399.811,132.32,399.84z"/>
					</g>
				</g>
				<g>
					<g>
						<path style="fill:#455A64;" d="M133.136,395.763c0.147,0.029,0.174,0.509,0.062,1.072c-0.113,0.563-0.323,0.995-0.469,0.966
							c-0.146-0.029-0.174-0.509-0.061-1.072C132.779,396.167,132.989,395.734,133.136,395.763z"/>
					</g>
				</g>
				<g>
					<g>
						<path style="fill:#455A64;" d="M133.951,391.687c0.146,0.029,0.174,0.509,0.061,1.072c-0.113,0.563-0.323,0.996-0.469,0.966
							c-0.146-0.029-0.174-0.509-0.061-1.072C133.594,392.09,133.805,391.658,133.951,391.687z"/>
					</g>
				</g>
				<g>
					<g>
						<path style="fill:#455A64;" d="M134.767,387.61c0.147,0.029,0.174,0.509,0.062,1.072c-0.113,0.563-0.323,0.995-0.469,0.966
							c-0.146-0.029-0.174-0.509-0.061-1.072C134.41,388.014,134.62,387.581,134.767,387.61z"/>
					</g>
				</g>
				<g>
					<g>
						<path style="fill:#455A64;" d="M135.582,383.534c0.147,0.029,0.174,0.509,0.062,1.072c-0.113,0.563-0.323,0.996-0.469,0.966
							c-0.146-0.029-0.174-0.509-0.061-1.072C135.225,383.937,135.436,383.505,135.582,383.534z"/>
					</g>
				</g>
				<g>
					<g>
						<path style="fill:#455A64;" d="M136.398,379.457c0.147,0.029,0.174,0.509,0.062,1.072c-0.113,0.563-0.323,0.995-0.469,0.966
							c-0.146-0.029-0.174-0.509-0.062-1.072C136.041,379.861,136.251,379.428,136.398,379.457z"/>
					</g>
				</g>
				<g>
					<g>
						<path style="fill:#455A64;" d="M137.213,375.381c0.147,0.029,0.174,0.509,0.062,1.072c-0.113,0.563-0.323,0.995-0.469,0.966
							c-0.147-0.029-0.174-0.509-0.061-1.072C136.856,375.784,137.067,375.352,137.213,375.381z"/>
					</g>
				</g>
				<g>
					<g>
						<path style="fill:#455A64;" d="M138.029,371.304c0.147,0.029,0.174,0.51,0.062,1.072c-0.113,0.563-0.323,0.995-0.469,0.966
							c-0.146-0.029-0.174-0.509-0.061-1.072C137.672,371.708,137.882,371.275,138.029,371.304z"/>
					</g>
				</g>
				<g>
					<g>
						<path style="fill:#455A64;" d="M138.844,367.228c0.147,0.029,0.174,0.509,0.061,1.072c-0.113,0.563-0.323,0.995-0.469,0.966
							c-0.147-0.029-0.174-0.509-0.062-1.072C138.487,367.631,138.698,367.198,138.844,367.228z"/>
					</g>
				</g>
				<g>
					<g>
						<path style="fill:#455A64;" d="M139.66,363.151c0.147,0.029,0.174,0.509,0.062,1.072c-0.113,0.563-0.323,0.995-0.469,0.966
							c-0.146-0.029-0.174-0.509-0.061-1.072C139.303,363.555,139.513,363.122,139.66,363.151z"/>
					</g>
				</g>
				<g>
					<g>
						<path style="fill:#455A64;" d="M140.475,359.075c0.146,0.029,0.174,0.509,0.061,1.072c-0.113,0.563-0.323,0.995-0.469,0.966
							c-0.147-0.029-0.174-0.509-0.062-1.072C140.118,359.478,140.329,359.046,140.475,359.075z"/>
					</g>
				</g>
				<g>
					<g>
						<path style="fill:#455A64;" d="M141.29,354.998c0.147,0.029,0.174,0.509,0.062,1.072c-0.113,0.563-0.323,0.995-0.469,0.966
							c-0.146-0.029-0.174-0.509-0.061-1.072C140.934,355.402,141.144,354.969,141.29,354.998z"/>
					</g>
				</g>
				<g>
					<g>
						<path style="fill:#455A64;" d="M142.106,350.922c0.146,0.029,0.174,0.509,0.062,1.072c-0.113,0.563-0.323,0.996-0.469,0.966
							c-0.146-0.029-0.174-0.509-0.061-1.072C141.749,351.325,141.96,350.892,142.106,350.922z"/>
					</g>
				</g>
				<g>
					<g>
						<path style="fill:#455A64;" d="M142.922,346.845c0.147,0.029,0.174,0.509,0.061,1.072c-0.113,0.563-0.323,0.996-0.469,0.966
							c-0.146-0.029-0.174-0.509-0.061-1.072C142.565,347.249,142.775,346.816,142.922,346.845z"/>
					</g>
				</g>
				<g>
					<g>
						<path style="fill:#455A64;" d="M143.737,342.769c0.146,0.029,0.174,0.509,0.062,1.072c-0.113,0.563-0.323,0.995-0.469,0.966
							c-0.146-0.029-0.174-0.509-0.061-1.072C143.38,343.172,143.591,342.739,143.737,342.769z"/>
					</g>
				</g>
				<g>
					<g>
						<path style="fill:#455A64;" d="M144.553,338.692c0.146,0.029,0.174,0.509,0.061,1.072c-0.113,0.563-0.323,0.995-0.469,0.966
							c-0.146-0.029-0.174-0.509-0.061-1.072C144.196,339.095,144.406,338.663,144.553,338.692z"/>
					</g>
				</g>
				<g>
					<g>
						<path style="fill:#455A64;" d="M145.368,334.616c0.147,0.029,0.174,0.509,0.061,1.072c-0.112,0.563-0.323,0.995-0.469,0.966
							c-0.147-0.029-0.174-0.509-0.061-1.072C145.011,335.019,145.222,334.586,145.368,334.616z"/>
					</g>
				</g>
				<g>
					<g>
						<path style="fill:#455A64;" d="M146.184,330.539c0.146,0.029,0.174,0.509,0.062,1.072c-0.113,0.563-0.323,0.996-0.469,0.966
							c-0.146-0.029-0.174-0.509-0.061-1.072C145.827,330.943,146.037,330.51,146.184,330.539z"/>
					</g>
				</g>
				<g>
					<g>
						<path style="fill:#455A64;" d="M146.999,326.463c0.147,0.029,0.174,0.509,0.062,1.072c-0.113,0.563-0.323,0.995-0.469,0.966
							c-0.147-0.029-0.174-0.509-0.061-1.072C146.642,326.866,146.853,326.433,146.999,326.463z"/>
					</g>
				</g>
				<g>
					<g>
						<path style="fill:#455A64;" d="M147.815,322.386c0.146,0.029,0.174,0.509,0.062,1.072c-0.113,0.563-0.323,0.995-0.469,0.966
							c-0.146-0.029-0.174-0.509-0.061-1.072C147.458,322.789,147.668,322.357,147.815,322.386z"/>
					</g>
				</g>
				<g>
					<g>
						<path style="fill:#455A64;" d="M148.63,318.31c0.147,0.029,0.174,0.509,0.061,1.072c-0.113,0.563-0.323,0.995-0.469,0.966
							c-0.147-0.029-0.174-0.509-0.061-1.072C148.273,318.713,148.483,318.28,148.63,318.31z"/>
					</g>
				</g>
			</g>
		</g>
		<g>
			<g>
				<g>
					<path style="fill:#FFBE9D;" d="M230.144,192.594c0,0,6.919-10.373,7.103-10.464l0,0c0,0,6.246-10.518,8.322-10.52
						c2.089-0.002,1.327,2.131-0.817,5.9c-1.88,3.303-2.07,5.366-2.07,5.366l5.13,3.098c0,0,3.426-1.326,3.569,1.868
						c0.048,1.068-0.234,2.39-0.59,4.337c-0.208,1.137-0.723,2.35-1.796,1.922c-0.492-0.196-0.894-0.575-0.918-1.284
						c-0.066-1.89,0.287-2.583,0.046-2.584c-0.308-0.001-3.692,9.912-3.692,9.912L230.144,192.594z"/>
				</g>
				<g>
					<path style="fill:#FFBE9D;" d="M244.115,184.451c0.528-0.362,1.059-0.726,1.646-0.981c0.586-0.255,1.238-0.396,1.868-0.29
						c0.396,0.066,0.788,0.24,1.04,0.553c0.345,0.429,0.368,1.051,0.197,1.575c-0.171,0.524-0.509,0.974-0.841,1.413"/>
				</g>
				<g>
					<path style="fill:#FFBE9D;" d="M241.775,182.358c0.5-0.341,1.004-0.684,1.56-0.924c0.556-0.24,1.173-0.373,1.77-0.274
						c0.375,0.062,0.746,0.225,0.985,0.521c0.327,0.404,0.348,0.99,0.186,1.483c-0.163,0.494-1.28,1.638-1.594,2.052"/>
				</g>
			</g>
			<g>
				<path style="fill:#FFBE9D;" d="M232.555,186.739l-9.998,21.383l11.022,11.265l5.744-15.936c0,0,3.078,0.613,4.333-1.428
					c1.401-2.279,3.24-8.865,3.24-8.865L232.555,186.739z"/>
			</g>
			<g>
				<g>
					<path style="fill:#EB996E;" d="M239.699,186.149c-0.108-0.033,0.142-1.465,1.183-2.957c0.53-0.738,1.204-1.241,1.714-1.517
						c0.513-0.28,0.863-0.373,0.895-0.311c0.095,0.159-1.197,0.799-2.173,2.149C240.36,184.873,239.866,186.22,239.699,186.149z"/>
				</g>
			</g>
			<g>
				<g>
					<path style="fill:#EB996E;" d="M250.791,186.238c-0.045,0.071-0.387-0.115-0.969-0.216c-0.571-0.103-1.419-0.088-2.184,0.334
						c-0.764,0.424-1.262,1.122-1.624,1.61c-0.358,0.5-0.594,0.815-0.662,0.777c-0.062-0.035,0.05-0.408,0.335-0.977
						c0.29-0.551,0.771-1.368,1.689-1.885c0.923-0.508,1.925-0.447,2.54-0.23C250.55,185.87,250.83,186.189,250.791,186.238z"/>
				</g>
			</g>
			<g>
				<g>
					<path style="fill:#EB996E;" d="M247.069,183.222c0.029,0.162-1.235,0.376-2.349,1.381c-1.118,0.988-1.667,2.149-1.82,2.073
						c-0.122-0.031,0.218-1.367,1.463-2.48c0.618-0.544,1.321-0.852,1.841-0.965C246.728,183.116,247.06,183.156,247.069,183.222z"
						/>
				</g>
			</g>
			<g>
				<g>
					<path style="fill:#EB996E;" d="M249.526,187.841c0.141-0.055,0.403,0.775-0.122,1.604c-0.518,0.834-1.379,0.958-1.391,0.808
						c-0.045-0.147,0.539-0.444,0.933-1.095C249.36,188.52,249.374,187.864,249.526,187.841z"/>
				</g>
			</g>
			<g>
				<path style="fill:#FFBE9D;" d="M230.168,192.178c0,0-0.349-6.381,1.193-7.826c1.542-1.445,5.962,0.056,5.962,0.056"/>
			</g>
			<g>
				<g>
					<path style="fill:#EB996E;" d="M237.948,181.366c0.117,0.093-0.907,1.721-2.287,3.637c-1.381,1.916-2.601,3.402-2.726,3.32
						c-0.125-0.082,0.899-1.71,2.287-3.637C236.61,182.76,237.831,181.273,237.948,181.366z"/>
				</g>
			</g>
		</g>
		<g>
			<g>
				<g>
					<g>
						<g>
							<path style="fill:#FFBE9D;" d="M149.431,132.987l-0.152,49.796l21.364,1.019l0.618-12.112c0,0,7.588,1.507,9.546-5.541
								c1.251-4.502,0.938-39.291,0.938-39.291L149.431,132.987z"/>
						</g>
					</g>
					<g>
						<g>
							<path style="fill:#263238;" d="M184.554,130.365c-3.365,0.963-4.096,6.463-4.096,6.463l-5.278,11.658
								c-2.689-2.105-6.299-1.984-6.983,2.74c-0.494,3.414,3.751,4.105,3.751,4.105c-2.471,4.205-4.148,7.607-7.746,11.607
								c-3.894,4.329-6.076,4.766-10.299,4.836h-4.657c0,0-2.28-7.4-6.501-25.906c-4.684-20.531,19.594-17.886,24.095-23.127
								C174.171,114.206,195.162,127.328,184.554,130.365z"/>
						</g>
					</g>
				</g>
			</g>
			<g>
				<path style="fill:#263238;" d="M143.19,147.803c-3.935-2.643-4.29-10.04-1.995-14.475c2.296-4.435,7.128-7.44,12.121-7.537
					c0.668-0.013,1.357,0.019,1.98-0.222c0.924-0.357,1.522-1.232,2.126-2.017c3.517-4.573,6.973-9.066,13.528-9.065
					c1.065,0,2.243,0,4.121,1.022c0.935,0.509,2.254,2.235,2.475,3.276c1.232-0.584,2.486-1.175,3.834-1.379
					c1.348-0.204,2.828,0.032,3.846,0.938c1.018,0.907,1.396,2.575,0.605,3.685c2.209-0.14,4.303,1.689,4.651,3.875
					c0.348,2.186-2.785,3.723-3.111,3.893c0,0,1.72,3.6-2.381,5.758c-1.651,0.869-3.798-0.178-4.042-0.304"/>
			</g>
			<g>
				<g>
					<path style="fill:#455A64;" d="M158.788,152.591c0.138-0.014,0.35,1.713-0.122,3.781c-0.46,2.071-1.391,3.541-1.51,3.469
						c-0.143-0.072,0.542-1.597,0.982-3.588C158.593,154.267,158.628,152.595,158.788,152.591z"/>
				</g>
			</g>
			<g>
				<g>
					<path style="fill:#455A64;" d="M161.371,150.148c0.144,0.006,0.175,1.653-0.199,3.64c-0.368,1.989-0.991,3.514-1.128,3.467
						c-0.147-0.047,0.235-1.616,0.596-3.566C161.008,151.74,161.217,150.138,161.371,150.148z"/>
				</g>
			</g>
			<g>
				<g>
					<path style="fill:#455A64;" d="M168.771,141.929c0.051,0.071-0.554,0.512-1.322,1.413c-0.775,0.891-1.657,2.284-2.302,3.974
						c-0.647,1.691-1.002,3.31-1.277,4.478c-0.268,1.171-0.453,1.897-0.529,1.883c-0.071-0.012-0.02-0.758,0.153-1.954
						c0.18-1.192,0.48-2.854,1.148-4.602c0.667-1.749,1.646-3.181,2.526-4.038C168.043,142.212,168.74,141.877,168.771,141.929z"/>
				</g>
			</g>
			<g>
				<g>
					<path style="fill:#455A64;" d="M171.762,136.334c0.063-0.017,0.281,0.482,0.415,1.347c0.135,0.862,0.139,2.096-0.186,3.4
						c-0.329,1.304-0.915,2.39-1.441,3.086c-0.526,0.701-0.954,1.037-1.001,0.992c-0.134-0.102,1.312-1.71,1.917-4.21
						C172.112,138.461,171.596,136.361,171.762,136.334z"/>
				</g>
			</g>
			<g>
				<g>
					<path style="fill:#455A64;" d="M146.265,148.771c-0.073,0.131-0.727-0.096-1.461-0.506c-0.734-0.41-1.27-0.848-1.197-0.979
						c0.073-0.13,0.727,0.096,1.461,0.507C145.802,148.202,146.338,148.641,146.265,148.771z"/>
				</g>
			</g>
			<g>
				<g>
					<path style="fill:#455A64;" d="M156.587,143.454c0.141,0.021,0.053,1.076-0.61,2.166c-0.657,1.095-1.55,1.663-1.634,1.548
						c-0.102-0.119,0.57-0.822,1.17-1.828C156.125,144.341,156.434,143.42,156.587,143.454z"/>
				</g>
			</g>
			<g>
				<g>
					<path style="fill:#455A64;" d="M159.761,141.75c0.138,0.031-0.086,1.295-0.951,2.588c-0.856,1.3-1.934,1.997-2.016,1.882
						c-0.101-0.121,0.763-0.96,1.565-2.181C159.172,142.827,159.61,141.704,159.761,141.75z"/>
				</g>
			</g>
			<g>
				<g>
					<path style="fill:#455A64;" d="M175.535,120.895c-0.037,0.043-0.401-0.305-1.171-0.743c-0.771-0.423-2.001-0.886-3.579-0.925
						c-1.563-0.049-3.482,0.323-5.252,1.411c-1.77,1.086-3.336,2.855-4.473,4.982c-0.828,1.546-1.401,3.156-1.815,4.669
						l-0.086,0.313l-0.287-0.151c-1.586-0.833-3.266-1.199-4.766-1.219c-1.506-0.041-2.831,0.235-3.88,0.586
						c-2.111,0.721-3.113,1.67-3.168,1.585c-0.016-0.019,0.221-0.257,0.715-0.633c0.497-0.369,1.276-0.849,2.344-1.258
						c1.065-0.405,2.428-0.732,3.995-0.723c1.56-0.012,3.325,0.341,5.005,1.205l-0.372,0.162c0.408-1.547,0.986-3.199,1.84-4.793
						c1.173-2.194,2.814-4.034,4.692-5.153c1.882-1.122,3.896-1.467,5.526-1.367c1.646,0.091,2.91,0.634,3.671,1.127
						c0.375,0.262,0.657,0.474,0.821,0.651C175.465,120.789,175.548,120.882,175.535,120.895z"/>
				</g>
			</g>
			<g>
				<g>
					<path style="fill:#455A64;" d="M186.77,123.605c-0.038-0.01,0.594-0.16,1.226,0.555c0.288,0.344,0.554,0.888,0.492,1.56
						c-0.065,0.67-0.528,1.361-1.242,1.774c-0.703,0.431-1.665,0.574-2.595,0.357c-0.936-0.204-1.835-0.7-2.678-1.298
						c-0.849-0.594-1.665-1.284-2.619-1.795c-0.952-0.517-2.024-0.894-3.156-1.109c-2.274-0.424-4.533-0.168-6.441,0.441
						c-1.919,0.615-3.512,1.539-4.761,2.42c-2.494,1.793-3.725,3.294-3.801,3.216c-0.025-0.022,0.26-0.409,0.845-1.053
						c0.59-0.636,1.482-1.533,2.73-2.473c1.244-0.937,2.857-1.922,4.832-2.585c1.969-0.658,4.316-0.942,6.696-0.499
						c1.185,0.225,2.311,0.625,3.311,1.176c1.01,0.551,1.835,1.267,2.653,1.853c0.812,0.594,1.643,1.064,2.488,1.267
						c0.841,0.213,1.67,0.106,2.305-0.252c0.638-0.342,1.052-0.925,1.132-1.479c0.081-0.563-0.121-1.066-0.357-1.392
						C187.322,123.611,186.742,123.665,186.77,123.605z"/>
				</g>
			</g>
		</g>
		<g>
			<g>
				<g>
					<g>
						<path style="fill:#E8505B;" d="M126.686,187.998l-19.08,32.043c-2.135,3.737-4.111,7.723-5.996,11.853
							c-1.521,3.957-0.642,9.122,2.014,12.406l-0.539-0.776c2.116,2.617,5.301,4.138,8.667,4.138h0.493
							c4.436,0,8.449-2.63,10.219-6.698l6.13-9.302L126.686,187.998z"/>
					</g>
				</g>
				<g>
					<g>
						<path style="fill:#E8505B;" d="M184.257,181.876c-5.122-2.616-10.179-3.207-15.697-3.368
							c-6.425-0.187-15.483-1.086-22.407-0.35c0,0-19.728,1.46-21.098,14.98l2.694,63.5l-4.517,26.905l63.224,1.91l-0.453-31.741
							c0.781-16.515-0.886-39.9-0.886-39.9c0.973-8.878,5.831-12.875,6.521-18.648C192.247,190.06,188.835,184.214,184.257,181.876z
							"/>
					</g>
				</g>
				<g>
					<g>
						<g>
							<path style="fill:#263238;" d="M166.438,257.551c0.021,0.024-0.297,0.352-0.93,0.881c-0.632,0.53-1.6,1.238-2.882,1.976
								c-2.541,1.483-6.498,2.97-11.052,3.05c-4.555,0.081-8.563-1.266-11.155-2.658c-1.307-0.693-2.3-1.365-2.95-1.873
								c-0.652-0.506-0.981-0.822-0.961-0.847c0.063-0.087,1.462,1.099,4.083,2.378c2.596,1.283,6.527,2.537,10.973,2.458
								c4.444-0.079,8.328-1.47,10.877-2.844C165.015,258.7,166.373,257.466,166.438,257.551z"/>
						</g>
					</g>
				</g>
				<g>
					<g>
						<g>
							<path style="fill:#263238;" d="M124.959,193.864c0.019-0.001,0.043,0.212,0.074,0.618c0.028,0.464,0.063,1.052,0.107,1.774
								c0.075,1.614,0.178,3.826,0.304,6.529c0.233,5.578,0.551,13.162,0.902,21.542c0.38,8.38,0.723,15.963,0.976,21.54
								c0.138,2.701,0.25,4.913,0.332,6.526c0.031,0.723,0.056,1.311,0.076,1.776c0.011,0.406,0.008,0.621-0.01,0.622
								c-0.019,0.002-0.052-0.21-0.098-0.614c-0.046-0.463-0.105-1.049-0.177-1.769c-0.148-1.537-0.312-3.764-0.504-6.518
								c-0.375-5.508-0.779-13.123-1.134-21.54c-0.356-8.413-0.602-16.034-0.743-21.551c-0.055-2.705-0.099-4.92-0.132-6.535
								c-0.002-0.724-0.004-1.313-0.006-1.778C124.928,194.079,124.94,193.865,124.959,193.864z"/>
						</g>
					</g>
				</g>
				<g>
					<g>
						<g>
							<path style="fill:#263238;" d="M121,197.226c0.016,0.009-0.059,0.179-0.218,0.494c-0.193,0.367-0.429,0.819-0.717,1.367
								c-0.638,1.178-1.587,2.87-2.804,4.934c-2.4,4.148-6.009,9.703-9.656,16.019c-1.822,3.155-3.368,6.278-4.707,9.131
								c-1.328,2.85-2.013,5.646-1.838,8.013c0.134,2.365,0.836,4.203,1.464,5.362c0.626,1.173,1.144,1.717,1.099,1.753
								c-0.014,0.012-0.145-0.119-0.383-0.383c-0.23-0.27-0.554-0.684-0.899-1.266c-0.697-1.149-1.475-3.011-1.663-5.441
								c-0.232-2.434,0.444-5.349,1.765-8.241c1.325-2.889,2.859-6.021,4.693-9.196c3.662-6.341,7.317-11.855,9.799-15.948
								c1.213-1.992,2.21-3.629,2.949-4.842c0.323-0.528,0.588-0.962,0.804-1.316C120.877,197.369,120.984,197.217,121,197.226z"/>
						</g>
					</g>
				</g>
				<g>
					<g>
						<g>
							<path style="fill:#E8505B;" d="M237.295,214.658l-14.63-9.569l-9.233,15.995c0,0-12.802-17.793-18.617-28.218
								c-5.352-9.595-12.276-12.179-15.617-12.874c-0.987-0.206-1.882,0.616-1.773,1.618l5.046,34.598
								c0.635,1.801,11.195,17.11,17.097,24.813c9.849,12.857,24.36,4.629,28.345-4.37
								C231.076,229.51,235.999,218.659,237.295,214.658z"/>
						</g>
					</g>
					<g>
						<g>
							<g>
								<path style="fill:#263238;" d="M217.638,235.521c-0.077,0.003-0.165-0.873-0.28-2.283c-0.122-1.408-0.266-3.357-0.706-5.449
									c-0.439-2.092-1.171-3.896-1.868-5.106c-0.688-1.218-1.271-1.877-1.205-1.936c0.041-0.044,0.736,0.532,1.532,1.737
									c0.803,1.194,1.621,3.045,2.071,5.192c0.451,2.145,0.535,4.124,0.559,5.543C217.757,234.641,217.71,235.518,217.638,235.521
									z"/>
							</g>
						</g>
					</g>
					<g>
						<g>
							<g>
								<path style="fill:#263238;" d="M221.92,228.372c-0.086,0.007-0.156-0.742-0.52-1.873c-0.364-1.122-1.088-2.63-2.34-3.923
									c-1.233-1.309-2.731-2.105-3.89-2.128c-1.168-0.06-1.816,0.408-1.855,0.327c-0.055-0.031,0.559-0.665,1.859-0.709
									c1.299-0.078,2.986,0.758,4.276,2.136c1.328,1.372,2.036,3,2.318,4.194C222.051,227.602,221.982,228.372,221.92,228.372z"/>
							</g>
						</g>
					</g>
					<g>
						<g>
							<g>
								<path style="fill:#263238;" d="M178.245,184.265c0.012,0.014-0.11,0.154-0.351,0.406c-0.135,0.138-0.283,0.29-0.45,0.46
									c-0.17,0.204-0.356,0.429-0.56,0.675c-0.812,1.028-1.879,2.653-2.533,4.918c-0.697,2.24-0.973,5.09-0.555,8.168
									c0.214,1.537,0.591,3.135,1.257,4.679c0.647,1.563,1.504,3.112,2.365,4.697c3.582,6.288,7.269,11.731,9.935,15.657
									c1.321,1.899,2.407,3.46,3.212,4.617c0.764,1.086,1.195,1.682,1.162,1.708c-0.015,0.011-0.141-0.123-0.368-0.39
									c-0.227-0.267-0.557-0.665-0.963-1.192c-0.824-1.045-1.972-2.59-3.357-4.524c-2.752-3.878-6.493-9.29-10.094-15.612
									c-0.868-1.599-1.725-3.156-2.382-4.757c-0.681-1.601-1.057-3.245-1.262-4.818c-0.4-3.154-0.076-6.068,0.684-8.348
									c0.718-2.305,1.862-3.938,2.737-4.94c0.221-0.238,0.422-0.455,0.605-0.652c0.182-0.158,0.344-0.3,0.491-0.428
									C178.088,184.363,178.233,184.251,178.245,184.265z"/>
							</g>
						</g>
					</g>
				</g>
				<g>
					<g>
						<g>
							<path style="fill:#263238;" d="M178.283,276.191c0.006,0.018-0.148,0.084-0.446,0.193c-0.361,0.125-0.794,0.275-1.314,0.455
								c-0.571,0.197-1.275,0.424-2.104,0.645c-0.828,0.226-1.764,0.512-2.821,0.739c-2.099,0.517-4.634,0.989-7.468,1.371
								c-2.838,0.35-5.978,0.591-9.28,0.612c-3.303-0.002-6.445-0.226-9.286-0.56c-2.837-0.366-5.374-0.823-7.476-1.329
								c-1.058-0.221-1.996-0.502-2.825-0.723c-0.831-0.216-1.535-0.439-2.108-0.633c-0.521-0.177-0.955-0.324-1.317-0.447
								c-0.299-0.108-0.453-0.173-0.447-0.191c0.006-0.018,0.171,0.013,0.48,0.087c0.368,0.096,0.812,0.211,1.343,0.349
								c0.58,0.163,1.29,0.355,2.125,0.542c0.833,0.193,1.773,0.446,2.831,0.642c2.102,0.455,4.631,0.871,7.452,1.207
								c2.825,0.304,5.945,0.511,9.225,0.514c3.279-0.021,6.397-0.245,9.22-0.566c2.819-0.352,5.345-0.782,7.445-1.249
								c1.057-0.202,1.995-0.461,2.827-0.658c0.834-0.192,1.543-0.389,2.122-0.555c0.531-0.141,0.974-0.259,1.342-0.357
								C178.111,276.205,178.277,276.173,178.283,276.191z"/>
						</g>
					</g>
				</g>
			</g>
			<g style="opacity:0.3;">
				<polygon points="123.817,238.912 126.673,234.481 125.183,199.586 				"/>
			</g>
			<g style="opacity:0.3;">
				<path d="M173.129,197.225c0,0,0.092,12.717,3.032,17.754c2.939,5.037,9.816,15.923,9.792,15.273
					c-0.023-0.65-0.392-8.975-0.392-8.975S173.189,204.343,173.129,197.225z"/>
			</g>
			<g>
				<g>
					<path style="fill:#FFFFFF;" d="M121.291,239.972c0.008,0.02-0.3,0.178-0.913,0.264c-0.608,0.089-1.531,0.047-2.575-0.332
						c-1.042-0.376-2.181-1.095-3.198-2.143c-1.02-1.054-1.862-2.416-2.667-3.855c-0.803-1.44-1.529-2.824-2.357-3.956
						c-0.825-1.133-1.738-2.024-2.608-2.619c-1.76-1.22-3.193-1.141-3.166-1.248c-0.001-0.023,0.339-0.078,0.949,0.006
						c0.608,0.081,1.48,0.349,2.419,0.934c0.937,0.583,1.916,1.484,2.791,2.641c0.879,1.159,1.627,2.555,2.426,3.987
						c0.798,1.428,1.61,2.761,2.56,3.779c0.95,1.017,2.013,1.732,2.983,2.131C119.917,240.389,121.294,239.857,121.291,239.972z"/>
				</g>
			</g>
			<g>
				<g>
					<path style="fill:#FFFFFF;" d="M125.16,218.059c-0.089,0.025-0.306-0.755-0.917-1.88c-0.603-1.124-1.68-2.557-3.231-3.735
						c-1.558-1.171-3.23-1.815-4.477-2.088c-1.248-0.28-2.058-0.276-2.058-0.368c-0.005-0.051,0.813-0.189,2.128,0.006
						c1.308,0.188,3.091,0.808,4.721,2.034c1.624,1.232,2.708,2.778,3.246,3.985C125.119,217.225,125.21,218.051,125.16,218.059z"/>
				</g>
			</g>
			<g>
				<g>
					<path style="fill:#FFFFFF;" d="M173.361,199.331c-0.012,0.051-0.686-0.131-1.929-0.232c-1.24-0.099-3.061-0.057-5.226,0.476
						c-2.167,0.515-4.648,1.502-7.252,2.9c-2.62,1.369-5.393,3.109-8.533,4.545c-3.132,1.465-6.408,2.207-9.393,2.391
						c-2.995,0.168-5.696-0.182-7.886-0.734c-2.197-0.541-3.887-1.271-5.008-1.842c-0.57-0.269-0.984-0.533-1.27-0.7
						c-0.284-0.171-0.428-0.268-0.419-0.284c0.024-0.044,0.632,0.295,1.776,0.8c1.139,0.51,2.83,1.18,5.007,1.667
						c2.171,0.499,4.831,0.804,7.77,0.614c2.934-0.21,6.123-0.944,9.209-2.387c3.096-1.415,5.875-3.14,8.526-4.497
						c2.637-1.386,5.177-2.357,7.392-2.834c2.215-0.496,4.077-0.482,5.329-0.319c0.627,0.083,1.109,0.179,1.428,0.274
						C173.201,199.259,173.366,199.314,173.361,199.331z"/>
				</g>
			</g>
			<g>
				<g>
					<path style="fill:#FFFFFF;" d="M185.653,233.929c0.005,0.017-0.193,0.083-0.577,0.193c-0.386,0.094-0.945,0.298-1.693,0.421
						c-1.481,0.327-3.68,0.574-6.395,0.508c-2.717-0.055-5.93-0.526-9.421-1.325c-3.493-0.8-7.258-1.945-11.208-3.106
						c-3.948-1.153-7.768-2.052-11.294-2.51c-3.524-0.441-6.748-0.475-9.402-0.074c-2.655,0.385-4.743,1.059-6.11,1.681
						c-1.374,0.606-2.098,1.03-2.126,0.982c-0.009-0.015,0.165-0.13,0.508-0.334c0.351-0.186,0.834-0.538,1.534-0.833
						c1.354-0.684,3.454-1.423,6.139-1.86c2.686-0.453,5.953-0.458,9.516-0.038c3.565,0.435,7.416,1.328,11.381,2.486
						c3.956,1.163,7.706,2.318,11.171,3.139c3.464,0.819,6.639,1.323,9.325,1.424c2.684,0.112,4.864-0.076,6.345-0.339
						C184.829,234.091,185.64,233.879,185.653,233.929z"/>
				</g>
			</g>
			<g>
				<g>
					<path style="fill:#FFFFFF;" d="M186.003,253.712c-0.048,0.167-2.964-1.717-8.319-2.242c-2.656-0.29-5.855-0.133-9.361,0.324
						c-3.509,0.477-7.328,1.281-11.361,2.038c-4.031,0.753-7.895,1.417-11.449,1.727c-3.551,0.319-6.785,0.296-9.464-0.063
						c-2.68-0.348-4.801-0.938-6.205-1.488c-0.715-0.239-1.232-0.525-1.597-0.678c-0.359-0.168-0.544-0.263-0.536-0.279
						c0.02-0.047,0.784,0.287,2.201,0.767c1.414,0.487,3.525,1.016,6.181,1.313c2.656,0.308,5.854,0.293,9.377-0.05
						c3.526-0.334,7.369-1.008,11.398-1.761c4.023-0.756,7.857-1.548,11.394-2.002c3.536-0.434,6.775-0.554,9.463-0.214
						c2.687,0.322,4.806,0.955,6.188,1.561c0.709,0.259,1.21,0.577,1.569,0.743C185.831,253.592,186.011,253.696,186.003,253.712z"
						/>
				</g>
			</g>
			<g>
				<g>
					<path style="fill:#FFFFFF;" d="M153.499,279.208c-0.022,0.028-0.377-0.198-0.998-0.629c-0.618-0.436-1.521-1.054-2.648-1.799
						c-2.251-1.492-5.445-3.428-9.147-5.232c-3.706-1.799-7.201-3.117-9.765-3.967c-1.281-0.426-2.325-0.755-3.05-0.972
						c-0.723-0.222-1.12-0.362-1.111-0.397c0.009-0.035,0.422,0.038,1.163,0.201c0.743,0.157,1.806,0.433,3.108,0.817
						c2.605,0.763,6.148,2.037,9.882,3.85c3.729,1.818,6.919,3.819,9.127,5.397c1.106,0.788,1.979,1.454,2.562,1.941
						C153.208,278.9,153.521,279.18,153.499,279.208z"/>
				</g>
			</g>
			<g>
				<g>
					<path style="fill:#FFFFFF;" d="M184.282,278.869c0.027,0.048-0.729,0.551-2.101,1.054c-1.366,0.505-3.374,0.938-5.612,0.872
						c-2.239-0.073-4.216-0.629-5.548-1.217c-1.338-0.587-2.062-1.136-2.032-1.182c0.044-0.077,0.827,0.354,2.167,0.839
						c1.336,0.488,3.26,0.968,5.429,1.04c2.168,0.062,4.118-0.297,5.482-0.702C183.435,279.172,184.243,278.79,184.282,278.869z"/>
				</g>
			</g>
			<g>
				<g>
					<path style="fill:#FFFFFF;" d="M206.166,212.852c0.024,0.002,0.036,0.327-0.116,0.888c-0.149,0.559-0.507,1.342-1.169,2.148
						c-0.661,0.805-1.624,1.608-2.811,2.286c-1.19,0.681-2.583,1.213-4.01,1.797c-1.424,0.584-2.758,1.201-3.802,1.989
						c-1.043,0.789-1.807,1.721-2.261,2.596c-0.941,1.786-0.527,3.119-0.64,3.109c-0.021,0.006-0.153-0.293-0.194-0.875
						c-0.044-0.578,0.063-1.445,0.504-2.397c0.438-0.949,1.215-1.959,2.299-2.813c1.09-0.856,2.459-1.5,3.897-2.09
						c1.438-0.588,2.817-1.101,3.974-1.735c1.158-0.631,2.102-1.371,2.766-2.108C205.96,214.16,206.066,212.814,206.166,212.852z"/>
				</g>
			</g>
			<g>
				<g>
					<path style="fill:#FFFFFF;" d="M193.88,191.628c0.035,0.009-0.027,0.33-0.169,0.907c-0.066,0.29-0.161,0.641-0.309,1.037
						c-0.144,0.397-0.284,0.86-0.515,1.34c-0.409,0.984-1.019,2.102-1.801,3.276c-0.805,1.158-1.795,2.361-2.975,3.485
						c-1.195,1.11-2.456,2.025-3.661,2.757c-1.22,0.709-2.374,1.249-3.38,1.597c-0.493,0.201-0.964,0.313-1.368,0.432
						c-0.404,0.124-0.76,0.197-1.054,0.245c-0.585,0.106-0.909,0.148-0.916,0.113c-0.021-0.097,1.267-0.346,3.205-1.133
						c0.972-0.385,2.085-0.949,3.264-1.664c1.165-0.739,2.387-1.643,3.553-2.726c1.153-1.098,2.129-2.262,2.938-3.379
						c0.786-1.133,1.416-2.209,1.86-3.156C193.457,192.872,193.785,191.601,193.88,191.628z"/>
				</g>
			</g>
			<g>
				<g>
					<path style="fill:#FFFFFF;" d="M174.631,178.508c0.013,0.033-0.503,0.264-1.451,0.653c-0.944,0.399-2.341,0.899-4.09,1.445
						c-1.747,0.555-3.865,1.097-6.241,1.583c-2.381,0.46-5.023,0.847-7.815,1.062c-2.794,0.195-5.465,0.198-7.888,0.091
						c-2.422-0.134-4.596-0.362-6.405-0.655c-1.81-0.285-3.265-0.576-4.257-0.833c-0.994-0.246-1.539-0.399-1.531-0.434
						c0.008-0.035,0.568,0.051,1.572,0.235c1.001,0.195,2.46,0.43,4.267,0.667c1.806,0.245,3.969,0.434,6.375,0.54
						c2.407,0.08,5.056,0.063,7.829-0.131c2.77-0.213,5.393-0.583,7.762-1.013c2.364-0.456,4.476-0.958,6.227-1.465
						c1.752-0.498,3.162-0.943,4.124-1.283C174.076,178.642,174.618,178.475,174.631,178.508z"/>
				</g>
			</g>
			<g>
				<g>
					<path style="fill:#FFFFFF;" d="M213.924,222.036c0.028-0.009,0.178,0.344,0.353,1.013c0.178,0.667,0.366,1.658,0.43,2.895
						c0.174,2.482-0.3,5.886-0.983,9.561c-0.332,1.846-0.736,3.613-1.36,5.14c-0.612,1.531-1.452,2.796-2.323,3.691
						c-0.865,0.908-1.745,1.444-2.378,1.729c-0.637,0.285-1.019,0.349-1.027,0.323c-0.057-0.096,1.514-0.479,3.134-2.302
						c0.805-0.896,1.578-2.125,2.147-3.618c0.58-1.49,0.964-3.221,1.294-5.057c0.683-3.677,1.205-7.017,1.128-9.454
						C214.303,223.521,213.824,222.06,213.924,222.036z"/>
				</g>
			</g>
			<g>
				<g>
					<path style="fill:#FFFFFF;" d="M233.971,224.599c-0.087,0.04-0.557-1.021-1.606-2.543c-1.041-1.523-2.75-3.457-5.057-5.076
						c-2.315-1.609-4.719-2.548-6.508-3.001c-1.791-0.461-2.948-0.537-2.94-0.632c0.002-0.036,0.292-0.042,0.817-0.021
						c0.526,0.01,1.285,0.106,2.207,0.294c0.926,0.181,2.005,0.511,3.163,0.98c1.148,0.491,2.37,1.133,3.559,1.953
						c1.179,0.834,2.202,1.76,3.058,2.669c0.839,0.926,1.52,1.825,2.009,2.632c0.495,0.801,0.846,1.481,1.036,1.971
						C233.91,224.31,234.004,224.584,233.971,224.599z"/>
				</g>
			</g>
			<g style="opacity:0.3;">
				<g>
					<path d="M175.208,276.98c1.045-0.471,1.355-1.898,0.7-2.722c-0.655-0.824-1.828-1.008-2.881-0.987
						c-5.165,0.102-9.674,3.559-14.756,4.487c-3.866,0.707-7.85-0.09-11.611-1.231c-3.761-1.141-7.43-2.63-11.292-3.359
						c-0.807-0.152-1.649-0.27-2.442-0.056c-0.793,0.214-1.528,0.84-1.628,1.656c-0.1,0.815,0.092,1.419,1.308,1.835
						c0,0,12.789,3.555,22.049,3.417C164.479,279.873,175.208,276.98,175.208,276.98z"/>
				</g>
			</g>
		</g>
	</g>
</g>
<g id="Plant">
	<g>
		<g>
			<g>
				<rect x="371.933" y="423.771" style="fill:#263238;" width="69.761" height="9.585"/>
			</g>
			<g>
				<path style="fill:#263238;" d="M441.813,433.475h-69.999v-9.824h69.999V433.475z M372.052,433.237h69.522v-9.347h-69.522
					V433.237z"/>
			</g>
		</g>
		<g>
			<g>
				<polygon style="fill:#263238;" points="378.401,430.166 388.443,479.704 425.596,479.704 435.303,433.356 				"/>
			</g>
		</g>
		<g>
			<g>
				<polygon style="fill:#455A64;" points="378.401,475.018 383.757,482.381 428.917,482.381 435.303,475.018 				"/>
			</g>
		</g>
		<g>
			<g>
				<g>
					<path style="fill:#263238;" d="M404.194,431.612c-0.137,0-0.313-22.949-0.393-51.253c-0.08-28.314-0.033-51.259,0.104-51.259
						c0.137,0,0.313,22.944,0.393,51.258C404.378,408.662,404.331,431.612,404.194,431.612z"/>
				</g>
			</g>
		</g>
		<g>
			<g>
				<g>
					<path style="fill:#263238;" d="M419.733,374.181c0.015,0.008-0.05,0.191-0.187,0.534c-0.163,0.389-0.37,0.881-0.623,1.485
						c-0.139,0.327-0.291,0.684-0.455,1.069c-0.144,0.404-0.299,0.839-0.465,1.303c-0.169,0.469-0.348,0.968-0.538,1.494
						c-0.186,0.53-0.333,1.108-0.516,1.704c-0.762,2.378-1.368,5.295-1.951,8.541c-0.508,3.262-0.889,6.874-1.08,10.681
						c-0.339,7.622,0.091,14.533,0.551,19.511c0.224,2.491,0.45,4.504,0.616,5.893c0.072,0.652,0.13,1.182,0.176,1.603
						c0.035,0.367,0.045,0.561,0.028,0.564c-0.017,0.003-0.06-0.187-0.127-0.55c-0.07-0.417-0.159-0.944-0.269-1.591
						c-0.225-1.383-0.504-3.392-0.774-5.884c-0.551-4.979-1.039-11.912-0.698-19.569c0.192-3.825,0.589-7.456,1.125-10.733
						c0.612-3.262,1.257-6.189,2.067-8.569c0.195-0.597,0.354-1.174,0.553-1.703c0.203-0.525,0.396-1.022,0.577-1.49
						c0.18-0.461,0.349-0.892,0.505-1.294c0.172-0.391,0.348-0.74,0.497-1.057c0.289-0.59,0.524-1.071,0.71-1.451
						C419.623,374.342,419.718,374.173,419.733,374.181z"/>
				</g>
			</g>
		</g>
		<g>
			<g>
				<g>
					<path style="fill:#263238;" d="M417.95,355.62c0.016,0.006-0.061,0.267-0.222,0.757c-0.181,0.531-0.422,1.241-0.726,2.134
						c-0.162,0.467-0.34,0.98-0.533,1.538c-0.173,0.573-0.361,1.191-0.561,1.853c-0.408,1.328-0.881,2.837-1.301,4.535
						c-0.223,0.846-0.457,1.732-0.7,2.653c-0.21,0.932-0.428,1.9-0.654,2.902c-0.488,1.997-0.839,4.168-1.289,6.434
						c-0.769,4.558-1.446,9.597-1.913,14.912c-0.441,5.319-0.633,10.402-0.7,15.026c-0.014,4.624,0.045,8.791,0.235,12.284
						c0.062,1.749,0.174,3.327,0.264,4.714c0.08,1.388,0.167,2.582,0.256,3.556c0.072,0.94,0.128,1.689,0.171,2.248
						c0.034,0.515,0.043,0.786,0.026,0.788c-0.017,0.002-0.06-0.266-0.125-0.777c-0.066-0.557-0.154-1.303-0.264-2.24
						c-0.118-0.973-0.234-2.166-0.34-3.553c-0.117-1.387-0.253-2.966-0.338-4.717c-0.235-3.497-0.33-7.671-0.342-12.306
						c0.042-4.635,0.221-9.731,0.663-15.065c0.468-5.33,1.161-10.383,1.957-14.95c0.463-2.271,0.831-4.445,1.338-6.445
						c0.236-1.003,0.464-1.971,0.684-2.904c0.255-0.922,0.499-1.807,0.733-2.653c0.443-1.697,0.941-3.203,1.375-4.527
						c0.215-0.659,0.416-1.275,0.602-1.845c0.209-0.554,0.401-1.064,0.576-1.527c0.341-0.88,0.612-1.581,0.815-2.105
						C417.826,355.862,417.934,355.613,417.95,355.62z"/>
				</g>
			</g>
		</g>
		<g>
			<g>
				<g>
					<path style="fill:#263238;" d="M399.781,435.672c-0.009,0-0.022-0.09-0.039-0.268c-0.017-0.206-0.039-0.466-0.066-0.79
						c-0.049-0.731-0.118-1.748-0.205-3.039c-0.168-2.677-0.406-6.487-0.7-11.179c-0.606-9.437-1.481-22.475-3.069-36.812
						c-0.811-7.169-1.752-13.977-2.731-20.149c-0.52-3.081-0.992-6.013-1.527-8.74c-0.491-2.736-1.02-5.269-1.506-7.582
						c-0.458-2.319-0.97-4.395-1.381-6.227c-0.404-1.834-0.795-3.403-1.122-4.684c-0.308-1.256-0.55-2.246-0.725-2.957
						c-0.072-0.317-0.13-0.571-0.176-0.773c-0.037-0.175-0.052-0.266-0.044-0.268c0.008-0.002,0.04,0.084,0.093,0.254
						c0.058,0.198,0.132,0.449,0.224,0.76c0.196,0.706,0.469,1.688,0.815,2.935c0.356,1.274,0.775,2.838,1.205,4.668
						c0.437,1.828,0.973,3.901,1.454,6.218c0.509,2.311,1.059,4.844,1.567,7.579c0.554,2.727,1.041,5.66,1.574,8.743
						c1.004,6.176,1.96,12.991,2.773,20.168c1.589,14.353,2.41,27.402,2.926,36.847c0.256,4.723,0.435,8.546,0.542,11.189
						c0.048,1.293,0.085,2.312,0.112,3.044c0.007,0.325,0.012,0.586,0.017,0.792C399.794,435.58,399.79,435.672,399.781,435.672z"/>
				</g>
			</g>
		</g>
		<g>
			<g>
				<path style="fill:#E8505B;" d="M403.625,340.133c-0.303-3.251-3.589-5.704-6.854-5.738c-3.265-0.034-6.309,1.924-8.306,4.508
					c-1.997,2.584-3.098,5.738-3.999,8.876c-2.199,7.66-3.401,15.707-2.461,23.621c0.94,7.913,4.151,15.705,9.829,21.296
					c0.923,0.909,2.119,1.818,3.386,1.548c0.693-0.148,1.261-0.629,1.786-1.104c11.155-10.077,17.597-25.17,17.155-40.197
					c-0.088-3.009-0.483-6.141-2.15-8.648C410.346,341.788,406.462,339.126,403.625,340.133"/>
			</g>
		</g>
		<g>
			<g>
				<g>
					<path style="fill:#E8505B;" d="M379.243,314.091c-1.533,2.776-3.066,5.552-4.599,8.329c-0.107,0.194-0.249,0.412-0.47,0.43
						c-0.242,0.02-0.422-0.208-0.555-0.412c-4.053-6.22-8.106-12.44-12.158-18.66l2.801-1.587L379.243,314.091z"/>
				</g>
			</g>
			<g style="opacity:0.2;">
				<g>
					<g>
						<path d="M379.243,314.091c-1.533,2.776-3.066,5.552-4.599,8.329c-0.107,0.194-0.249,0.412-0.47,0.43
							c-0.242,0.02-0.422-0.208-0.555-0.412c-4.053-6.22-8.106-12.44-12.158-18.66l2.801-1.587L379.243,314.091z"/>
					</g>
				</g>
			</g>
			<g>
				<g>
					<path style="fill:#E8505B;" d="M403.905,329.099c-13.825-8.158-27.65-16.316-41.475-24.474c-0.423-0.25-0.882-0.545-1.01-1.019
						c-0.166-0.614,0.295-1.206,0.738-1.662c5.704-5.885,13.99-9.296,22.165-8.708c8.175,0.588,16.036,5.31,20.038,12.462
						C408.363,312.852,408.496,322.31,403.905,329.099"/>
				</g>
			</g>
			<g>
				<g>
					<g>
						<path style="fill:#263238;" d="M368.408,296.813c-0.001-0.017,0.186-0.04,0.543-0.068c0.358-0.018,0.886-0.083,1.567-0.075
							c1.363-0.033,3.344,0.056,5.755,0.457c2.409,0.396,5.239,1.171,8.196,2.49c2.955,1.312,6.012,3.212,8.797,5.708
							c2.762,2.523,4.958,5.377,6.558,8.186c1.607,2.811,2.66,5.549,3.294,7.907c0.639,2.358,0.926,4.321,1.028,5.68
							c0.075,0.677,0.063,1.209,0.081,1.567c0.008,0.358,0.004,0.547-0.013,0.547c-0.044,0.002-0.096-0.749-0.26-2.094
							c-0.161-1.345-0.498-3.282-1.174-5.604c-1.311-4.619-4.356-10.846-9.848-15.821c-5.496-4.967-11.995-7.376-16.721-8.22
							c-2.378-0.441-4.34-0.583-5.694-0.609C369.163,296.834,368.41,296.857,368.408,296.813z"/>
					</g>
				</g>
			</g>
			<g>
				<g>
					<g>
						<path style="fill:#263238;" d="M398.292,312.207c0.024,0.063-0.775,0.432-2.097,0.953c-1.321,0.521-3.168,1.186-5.233,1.843
							c-2.066,0.656-3.959,1.178-5.339,1.515c-1.38,0.337-2.245,0.496-2.262,0.431c-0.018-0.068,0.815-0.347,2.168-0.77
							c1.529-0.478,3.312-1.035,5.282-1.65c1.964-0.634,3.741-1.208,5.266-1.7C397.425,312.394,398.267,312.141,398.292,312.207z"/>
					</g>
				</g>
			</g>
			<g>
				<g>
					<g>
						<path style="fill:#263238;" d="M391.761,294.664c0.134-0.012,0.428,2.056,0.491,4.627c0.067,2.572-0.122,4.652-0.256,4.646
							c-0.14-0.005-0.174-2.079-0.241-4.633C391.692,296.75,391.621,294.676,391.761,294.664z"/>
					</g>
				</g>
			</g>
			<g>
				<g>
					<g>
						<path style="fill:#263238;" d="M362.068,304.161c-0.019-0.063,1.128-0.48,3.013-1.06c1.884-0.581,4.509-1.316,7.434-2.022
							c2.927-0.704,5.598-1.245,7.54-1.586c1.942-0.341,3.153-0.493,3.165-0.428c0.013,0.07-1.175,0.344-3.096,0.773
							c-1.921,0.428-4.574,1.022-7.492,1.724c-2.918,0.704-5.549,1.383-7.454,1.877
							C363.271,303.932,362.089,304.229,362.068,304.161z"/>
					</g>
				</g>
			</g>
		</g>
		<g>
			<g>
				<g>
					<path style="fill:#E8505B;" d="M384.781,332.437c-3.567-2.705-7.339-3.238-11.812-3.06c-4.473,0.177-8.827,1.54-12.928,3.336
						c-6.994,3.063-13.568,7.578-17.746,13.968c-4.179,6.39-5.633,14.849-2.504,21.814c0.312,0.694,0.717,1.419,1.416,1.719
						c0.736,0.315,1.579,0.069,2.341-0.179c7.954-2.595,15.965-5.214,23.279-9.278c7.314-4.064,13.971-9.712,17.896-17.102
						c0.942-1.773,1.73-3.673,1.884-5.675C386.76,335.978,386.207,333.851,384.781,332.437"/>
				</g>
			</g>
			<g>
				<g>
					<g>
						<path style="fill:#263238;" d="M384.852,331.598c0.005,0.017-0.193,0.096-0.573,0.233c-0.43,0.148-0.983,0.338-1.667,0.573
							c-0.368,0.123-0.771,0.257-1.207,0.402c-0.438,0.157-0.904,0.354-1.41,0.549c-1.006,0.407-2.175,0.814-3.405,1.411
							c-0.623,0.284-1.273,0.58-1.95,0.888c-0.676,0.312-1.352,0.696-2.066,1.06c-1.442,0.708-2.9,1.613-4.454,2.53
							c-3.049,1.928-6.277,4.249-9.418,6.985c-3.115,2.768-5.828,5.674-8.129,8.454c-1.108,1.424-2.191,2.756-3.077,4.096
							c-0.452,0.663-0.919,1.284-1.315,1.915c-0.392,0.632-0.769,1.24-1.13,1.821c-0.749,1.144-1.301,2.251-1.833,3.197
							c-0.259,0.477-0.512,0.915-0.724,1.329c-0.2,0.414-0.384,0.796-0.553,1.146c-0.32,0.648-0.579,1.172-0.781,1.58
							c-0.184,0.359-0.288,0.545-0.304,0.538c-0.016-0.007,0.057-0.206,0.212-0.578c0.18-0.419,0.411-0.956,0.697-1.622
							c0.157-0.356,0.329-0.746,0.516-1.168c0.2-0.422,0.443-0.867,0.69-1.352c0.511-0.962,1.044-2.087,1.777-3.249
							c0.354-0.59,0.724-1.207,1.108-1.849c0.39-0.64,0.851-1.27,1.299-1.942c0.877-1.358,1.955-2.708,3.06-4.149
							c2.296-2.814,5.02-5.751,8.157-8.539c3.164-2.756,6.423-5.082,9.506-7.001c1.57-0.913,3.046-1.809,4.505-2.507
							c0.723-0.358,1.407-0.736,2.091-1.041c0.685-0.3,1.344-0.588,1.974-0.864c1.246-0.579,2.429-0.965,3.449-1.35
							c0.513-0.184,0.986-0.368,1.429-0.512c0.443-0.131,0.851-0.252,1.225-0.363c0.697-0.199,1.26-0.36,1.698-0.485
							C384.641,331.629,384.848,331.582,384.852,331.598z"/>
					</g>
				</g>
			</g>
			<g>
				<g>
					<g>
						<path style="fill:#263238;" d="M356.984,346.687c0.039,0.132-3.847,1.384-8.677,2.796c-4.832,1.413-8.778,2.451-8.817,2.319
							c-0.039-0.132,3.846-1.383,8.677-2.796C352.998,347.594,356.946,346.556,356.984,346.687z"/>
					</g>
				</g>
			</g>
			<g>
				<g>
					<g>
						<path style="fill:#263238;" d="M356.628,365.835c-0.067,0.001-0.145-1.032-0.191-2.704c-0.046-1.671-0.053-3.982,0.018-6.532
							c0.072-2.551,0.208-4.858,0.347-6.524c0.139-1.667,0.275-2.693,0.341-2.688c0.07,0.005,0.058,1.039,0.009,2.708
							c-0.056,1.832-0.125,4.057-0.201,6.518c-0.062,2.461-0.117,4.687-0.163,6.518
							C356.744,364.801,356.698,365.834,356.628,365.835z"/>
					</g>
				</g>
			</g>
			<g>
				<g>
					<g>
						<path style="fill:#263238;" d="M373.03,357.479c-0.137,0.009-0.573-4.686-0.974-10.485
							c-0.401-5.802-0.615-10.511-0.478-10.521c0.137-0.009,0.573,4.685,0.974,10.486
							C372.953,352.759,373.167,357.469,373.03,357.479z"/>
					</g>
				</g>
			</g>
			<g>
				<g>
					<g>
						<path style="fill:#263238;" d="M352.613,336.017c0.004-0.069,1.066-0.096,2.781-0.084c1.715,0.012,4.082,0.062,6.695,0.148
							c2.614,0.086,4.98,0.193,6.692,0.294c1.712,0.102,2.771,0.199,2.77,0.267c-0.001,0.069-1.062,0.096-2.777,0.084
							c-1.715-0.012-4.084-0.062-6.701-0.149c-2.616-0.087-4.983-0.193-6.695-0.294
							C353.666,336.183,352.609,336.086,352.613,336.017z"/>
					</g>
				</g>
			</g>
		</g>
		<g>
			<g>
				<g>
					<path style="fill:#263238;" d="M393.613,394.93c-0.017,0-0.037-0.195-0.059-0.567c-0.019-0.427-0.043-0.966-0.073-1.629
						c-0.063-1.415-0.077-3.466-0.023-5.999c0.045-2.533,0.214-5.548,0.512-8.886c0.323-3.335,0.79-6.992,1.46-10.802
						c0.688-3.808,1.512-7.402,2.36-10.645c0.873-3.236,1.756-6.123,2.588-8.517c0.825-2.395,1.546-4.315,2.093-5.622
						c0.257-0.612,0.466-1.11,0.631-1.504c0.149-0.342,0.235-0.518,0.251-0.511c0.016,0.006-0.039,0.195-0.158,0.548
						c-0.142,0.402-0.322,0.911-0.544,1.536c-0.491,1.326-1.161,3.26-1.941,5.663c-0.788,2.401-1.633,5.29-2.478,8.522
						c-0.822,3.238-1.629,6.822-2.314,10.616c-0.667,3.796-1.147,7.438-1.493,10.759c-0.322,3.324-0.526,6.327-0.616,8.853
						c-0.098,2.525-0.137,4.571-0.134,5.985c-0.008,0.663-0.015,1.203-0.02,1.629C393.644,394.733,393.631,394.929,393.613,394.93z"
						/>
				</g>
			</g>
		</g>
		<g>
			<g>
				<g>
					<path style="fill:#263238;" d="M395.801,366.632c0.047,0.048-0.581,0.746-1.654,1.816c-1.073,1.07-2.596,2.506-4.335,4.031
						c-1.739,1.524-3.363,2.847-4.564,3.771c-1.201,0.924-1.975,1.455-2.017,1.402c-0.044-0.055,0.652-0.683,1.794-1.674
						c1.275-1.107,2.787-2.42,4.459-3.872c1.658-1.467,3.158-2.795,4.422-3.913C395.039,367.189,395.752,366.581,395.801,366.632z"
						/>
				</g>
			</g>
		</g>
		<g>
			<g>
				<g>
					<path style="fill:#263238;" d="M408.929,377.207c-0.06,0.038-0.718-0.906-1.762-2.441c-1.134-1.654-2.542-3.709-4.098-5.981
						c-1.59-2.25-3.027-4.285-4.184-5.923c-1.076-1.513-1.732-2.457-1.676-2.501c0.053-0.041,0.807,0.829,1.957,2.29
						c1.15,1.461,2.689,3.52,4.311,5.849c1.62,2.33,3.015,4.488,3.986,6.074C408.433,376.161,408.986,377.171,408.929,377.207z"/>
				</g>
			</g>
		</g>
		<g>
			<g>
				<g>
					<path style="fill:#263238;" d="M402.052,343.949c0.074,0.116-4.287,3.051-9.739,6.557c-5.454,3.507-9.934,6.255-10.009,6.139
						c-0.074-0.115,4.286-3.051,9.74-6.557C397.497,346.582,401.978,343.833,402.052,343.949z"/>
				</g>
			</g>
		</g>
		<g>
			<g>
				<g>
					<path style="fill:#263238;" d="M414.348,357.221c-0.096,0.098-3.049-2.631-6.596-6.095c-3.548-3.465-6.345-6.353-6.249-6.451
						c0.096-0.098,3.049,2.63,6.596,6.096C411.646,354.234,414.444,357.122,414.348,357.221z"/>
				</g>
			</g>
		</g>
		<g>
			<g>
				<g>
					<path style="fill:#E8505B;" d="M417.441,356.954l3.744-0.31c2.657-0.22,5.237-1.007,7.56-2.314
						c1.148-0.646,2.302-1.279,3.523-1.77c4.628-1.858,9.792-1.526,14.773-1.776c8.13-0.408,16.174-2.464,23.502-6.009
						c0.423-0.205,0.798-0.517,1.024-0.929c0.769-1.401-0.659-2.648-1.889-3.405c-6.307-3.886-12.727-7.822-19.879-9.751
						c-7.152-1.929-15.271-1.603-21.374,2.597C421.262,338.217,418.651,348.343,417.441,356.954"/>
				</g>
			</g>
			<g>
				<g>
					<g>
						<path style="fill:#263238;" d="M471.651,343.386c-0.008,0.015-0.227-0.087-0.635-0.296c-0.449-0.235-1.039-0.544-1.774-0.929
							c-1.539-0.809-3.754-2.004-6.554-3.346c-2.801-1.328-6.195-2.827-10.145-3.91c-3.933-1.093-8.47-1.665-13.149-1.065
							c-4.659,0.614-8.949,2.427-11.986,5.147c-3.056,2.711-4.923,5.985-6.241,8.767c-1.315,2.806-2.126,5.193-2.716,6.826
							c-0.276,0.783-0.498,1.41-0.666,1.888c-0.156,0.431-0.246,0.654-0.262,0.649c-0.016-0.005,0.042-0.239,0.167-0.68
							c0.146-0.485,0.338-1.123,0.578-1.919c0.535-1.655,1.295-4.064,2.58-6.912c1.289-2.822,3.146-6.166,6.257-8.962
							c3.094-2.807,7.484-4.674,12.225-5.297c4.758-0.611,9.369-0.012,13.335,1.117c3.984,1.119,7.384,2.662,10.176,4.035
							c2.79,1.388,4.982,2.631,6.493,3.493c0.717,0.419,1.292,0.755,1.73,1.011C471.457,343.24,471.66,343.371,471.651,343.386z"/>
					</g>
				</g>
			</g>
			<g>
				<g>
					<g>
						<path style="fill:#263238;" d="M462.661,348.216c-0.077,0.114-4.973-3.053-10.935-7.073
							c-5.964-4.021-10.735-7.372-10.658-7.486c0.077-0.114,4.972,3.053,10.936,7.074
							C457.966,344.751,462.738,348.103,462.661,348.216z"/>
					</g>
				</g>
			</g>
			<g>
				<g>
					<g>
						<path style="fill:#263238;" d="M457.958,333.188c0.026,0.13-1.673,0.572-3.822,0.767c-2.149,0.2-3.9,0.077-3.897-0.056
							c0-0.142,1.73-0.241,3.852-0.439C456.212,333.268,457.931,333.049,457.958,333.188z"/>
					</g>
				</g>
			</g>
			<g>
				<g>
					<g>
						<path style="fill:#263238;" d="M436.005,329.255c0.118,0.07-0.601,1.508-1.606,3.212c-1.005,1.704-1.916,3.029-2.034,2.96
							s0.601-1.508,1.606-3.212C434.976,330.51,435.887,329.185,436.005,329.255z"/>
					</g>
				</g>
			</g>
			<g>
				<g>
					<g>
						<path style="fill:#263238;" d="M440.392,351.1c-0.034,0.056-0.942-0.419-2.356-1.277c-1.414-0.858-3.326-2.116-5.368-3.599
							c-2.042-1.484-3.843-2.886-5.137-3.912c-1.293-1.028-2.074-1.688-2.033-1.743c0.041-0.055,0.897,0.506,2.244,1.462
							c1.469,1.067,3.249,2.361,5.218,3.791c2.036,1.478,3.906,2.775,5.267,3.706C439.588,350.459,440.43,351.039,440.392,351.1z"/>
					</g>
				</g>
			</g>
		</g>
		<g>
			<g>
				<g>
					<path style="fill:#E8505B;" d="M422.953,372.859c-3.571-0.943-7.827,2.53-8.563,6.149c-0.736,3.619,0.621,7.32,2.21,10.654
						c3.518,7.38,8.372,14.225,14.766,19.32c6.394,5.095,14.402,8.353,22.577,8.312c-1.509-7.011,0.4-14.336-0.442-21.459
						c-0.735-6.217-3.633-12.157-8.082-16.561c-4.448-4.404-10.417-7.243-16.641-7.916
						C426.5,371.112,423.862,370.754,422.953,372.859"/>
				</g>
			</g>
			<g>
				<g>
					<g>
						<path style="fill:#263238;" d="M453.944,417.294c-0.008,0.015-0.182-0.066-0.508-0.236c-0.322-0.176-0.787-0.459-1.336-0.897
							c-1.121-0.851-2.405-2.491-3.526-4.715c-0.569-1.105-1.206-2.306-1.827-3.634c-0.603-1.333-1.246-2.754-1.921-4.246
							c-0.681-1.488-1.43-3.032-2.361-4.539c-0.926-1.509-2.028-2.984-3.249-4.418c-2.445-2.872-5.068-5.356-7.341-7.729
							c-2.286-2.364-4.208-4.641-5.598-6.716c-1.403-2.067-2.253-3.919-2.735-5.224c-0.23-0.659-0.396-1.173-0.477-1.532
							c-0.09-0.355-0.129-0.544-0.113-0.548c0.046-0.013,0.249,0.729,0.77,2.009c0.534,1.273,1.42,3.076,2.845,5.096
							c1.411,2.027,3.342,4.259,5.636,6.596c2.284,2.348,4.922,4.826,7.392,7.727c1.233,1.449,2.348,2.947,3.285,4.486
							c0.941,1.537,1.689,3.104,2.362,4.604c0.66,1.498,1.288,2.924,1.878,4.263c0.599,1.323,1.219,2.535,1.766,3.646
							c1.075,2.23,2.276,3.845,3.338,4.728C453.267,416.913,453.973,417.246,453.944,417.294z"/>
					</g>
				</g>
			</g>
			<g>
				<g>
					<g>
						<path style="fill:#263238;" d="M435.479,411.467c-0.065-0.013,0.048-0.933,0.328-2.404c0.28-1.47,0.738-3.489,1.357-5.688
							c0.62-2.2,1.283-4.161,1.812-5.561c0.529-1.401,0.913-2.244,0.975-2.221c0.067,0.025-0.201,0.91-0.643,2.335
							c-0.442,1.425-1.048,3.393-1.666,5.582c-0.616,2.189-1.126,4.184-1.492,5.63C435.783,410.586,435.549,411.481,435.479,411.467
							z"/>
					</g>
				</g>
			</g>
			<g>
				<g>
					<g>
						<path style="fill:#263238;" d="M453.267,394.257c-0.022,0.068-0.977-0.176-2.515-0.578c-1.539-0.402-3.663-0.952-6.027-1.485
							c-2.365-0.532-4.52-0.946-6.082-1.242c-1.562-0.296-2.53-0.485-2.52-0.556c0.009-0.065,0.994,0.001,2.576,0.209
							c1.581,0.208,3.758,0.57,6.136,1.104c2.376,0.536,4.498,1.142,6.016,1.632C452.368,393.832,453.287,394.194,453.267,394.257z"
							/>
					</g>
				</g>
			</g>
			<g>
				<g>
					<g>
						<path style="fill:#263238;" d="M422.229,399.257c-0.065-0.013,0.072-1.077,0.386-2.782c0.314-1.704,0.814-4.048,1.481-6.608
							c0.669-2.561,1.379-4.85,1.938-6.49c0.56-1.641,0.96-2.636,1.023-2.615c0.067,0.022-0.215,1.056-0.687,2.72
							c-0.472,1.664-1.126,3.96-1.792,6.511c-0.665,2.551-1.217,4.873-1.618,6.555C422.558,398.231,422.298,399.271,422.229,399.257
							z"/>
					</g>
				</g>
			</g>
			<g>
				<g>
					<g>
						<path style="fill:#263238;" d="M445.075,379.259c-0.014,0.136-4.472-0.224-9.955-0.806c-5.485-0.582-9.918-1.163-9.904-1.3
							c0.014-0.136,4.471,0.224,9.956,0.806C440.656,378.54,445.09,379.122,445.075,379.259z"/>
					</g>
				</g>
			</g>
		</g>
		<g>
			<g>
				<g>
					<path style="fill:#455A64;" d="M441.809,433.316c0,0.137-15.669,0.249-34.994,0.249c-19.331,0-34.998-0.111-34.998-0.249
						s15.666-0.249,34.998-0.249C426.14,433.067,441.809,433.178,441.809,433.316z"/>
				</g>
			</g>
		</g>
		<g>
			<g>
				<g>
					<path style="fill:#455A64;" d="M430.908,453.48c0,0.137-10.558,0.249-23.578,0.249c-13.025,0-23.58-0.111-23.58-0.249
						c0-0.137,10.555-0.248,23.58-0.248C420.35,453.232,430.908,453.343,430.908,453.48z"/>
				</g>
			</g>
		</g>
		<g>
			<g>
				<g>
					<path style="fill:#455A64;" d="M431.32,456.363c0,0.137-10.558,0.248-23.578,0.248c-13.025,0-23.58-0.111-23.58-0.248
						c0-0.137,10.555-0.248,23.58-0.248C420.762,456.115,431.32,456.226,431.32,456.363z"/>
				</g>
			</g>
		</g>
		<g>
			<g>
				<g>
					<path style="fill:#455A64;" d="M431.32,451.104c0,0.137-10.921,0.249-24.388,0.249c-13.473,0-24.391-0.111-24.391-0.249
						c0-0.137,10.918-0.249,24.391-0.249C420.399,450.855,431.32,450.967,431.32,451.104z"/>
				</g>
			</g>
		</g>
	</g>
</g>
<g id="Floor">
	<g>
		<g>
			<path style="fill:#263238;" d="M461.231,482.381c0,0.144-94.579,0.26-211.221,0.26c-116.683,0-211.241-0.117-211.241-0.26
				s94.559-0.26,211.241-0.26C366.652,482.121,461.231,482.238,461.231,482.381z"/>
		</g>
	</g>
</g>
</svg>
